<?xml version="1.0" standalone="no"?>
<!DOCTYPE svg PUBLIC "-//W3C//DTD SVG 20010904//EN"
 "http://www.w3.org/TR/2001/REC-SVG-20010904/DTD/svg10.dtd">
<svg version="1.0" xmlns="http://www.w3.org/2000/svg"
 width="700.000000pt" height="700.000000pt" viewBox="0 0 700.000000 700.000000"
 preserveAspectRatio="xMidYMid meet">
<metadata>
Created by potrace 1.11, written by Peter Selinger 2001-2013
</metadata>
<g transform="translate(0.000000,700.000000) scale(0.100000,-0.100000)"
fill="#000000" stroke="none">
<path d="M3278 6015 c-2 -1 -45 -5 -95 -9 -98 -6 -118 -9 -253 -31 -319 -53
-586 -151 -850 -313 -349 -214 -595 -560 -655 -922 -3 -19 -8 -42 -10 -50 -18
-66 -26 -328 -14 -419 33 -233 97 -419 193 -560 20 -29 36 -57 36 -62 0 -5 4
-9 8 -9 4 0 16 -15 27 -32 35 -62 248 -261 361 -340 61 -43 115 -78 119 -78 5
0 16 -6 24 -14 28 -24 220 -119 466 -230 132 -60 269 -122 305 -139 36 -16
108 -48 160 -72 52 -24 120 -54 150 -68 30 -14 130 -59 221 -101 163 -73 269
-132 325 -178 162 -133 228 -262 227 -438 0 -117 -24 -180 -90 -241 -105 -97
-282 -143 -548 -143 -315 0 -508 44 -715 162 -357 204 -561 463 -626 792 -19
99 -56 160 -113 190 -43 21 -58 25 -153 35 -118 13 -142 13 -189 -1 -92 -28
-141 -106 -155 -249 -8 -94 -10 -109 -19 -185 -8 -75 -10 -91 -20 -180 -4 -36
-9 -73 -10 -82 -2 -9 -6 -49 -10 -90 -3 -40 -8 -84 -10 -98 -2 -14 -6 -54 -10
-90 -3 -36 -8 -76 -10 -90 -3 -14 -7 -50 -10 -80 -7 -75 -15 -138 -21 -180
-12 -84 -13 -211 -2 -238 44 -102 102 -132 292 -147 113 -10 156 -1 206 42 49
42 75 96 84 173 3 30 13 79 22 108 l15 53 82 -45 c297 -164 572 -279 787 -331
65 -16 226 -45 275 -50 133 -14 167 -15 345 -15 232 1 377 10 565 35 17 2 53
7 80 11 58 7 45 5 200 38 161 35 245 60 370 107 562 211 896 601 979 1144 27
177 23 412 -10 555 -64 283 -226 536 -484 752 -166 139 -337 242 -610 367 -52
24 -176 82 -275 129 -238 111 -307 144 -449 209 -65 30 -126 59 -135 63 -9 5
-65 32 -126 60 -230 107 -512 276 -585 351 -55 56 -83 153 -83 278 0 106 20
165 71 216 49 49 145 96 224 109 18 3 44 9 58 12 14 4 115 8 225 10 207 3 323
-9 490 -51 172 -43 366 -146 486 -257 128 -119 278 -399 309 -578 20 -114 42
-154 108 -199 44 -31 127 -35 271 -16 118 17 159 42 201 124 21 42 22 53 15
170 -3 69 -8 137 -10 151 -1 14 -6 68 -10 120 -10 143 -14 190 -19 250 -3 30
-8 93 -11 140 -4 47 -9 110 -11 140 -3 30 -7 80 -9 110 -18 286 -30 332 -97
383 -58 44 -106 52 -226 38 -129 -14 -185 -39 -227 -99 l-30 -42 -75 5 c-88 5
-176 27 -358 90 -137 47 -306 87 -422 100 -36 4 -74 9 -85 11 -23 5 -442 13
-447 9z"/>
</g>
</svg>
