<?xml version="1.0" encoding="utf-8"?>
<!-- Generator: Adobe Illustrator 15.1.0, SVG Export Plug-In . SVG Version: 6.00 Build 0)  -->
<!DOCTYPE svg PUBLIC "-//W3C//DTD SVG 1.1//EN" "http://www.w3.org/Graphics/SVG/1.1/DTD/svg11.dtd">
<svg version="1.1" id="Layer_1" xmlns="http://www.w3.org/2000/svg" xmlns:xlink="http://www.w3.org/1999/xlink" x="0px" y="0px"
	 width="100px" height="100px" viewBox="0 0 100 100" enable-background="new 0 0 100 100" xml:space="preserve">
<g>
	<g>
		<path fill="#B5E4FA" d="M71.678,18.392l1.356,17.334l-2.509,0.256c-0.239-2.543-1.451-5.436-3.636-8.68
			c-1.417-2.1-3.641-3.854-6.67-5.262c-3.03-1.408-6.67-2.111-10.921-2.111c-7.681,0-11.521,2.688-11.521,8.064
			c0,3.072,0.947,5.334,2.842,6.785c1.725,1.314,4.012,2.705,6.862,4.174l18.435,8.604c7.699,4.096,11.557,9.422,11.573,15.977
			c0,13.365-9.832,20.047-29.496,20.047c-2.97,0-5.829-0.408-8.577-1.229c-3.261-0.99-6.247-2.32-8.962-3.994
			c-1.178-0.734-2.193-1.102-3.047-1.102c-1.929,0-3.063,1.818-3.405,5.455l-2.458-0.256l2.074-18.436l2.509,0.256
			c0.837,5.957,4.481,10.729,10.934,14.312c2.987,1.656,6.631,2.484,10.933,2.484c8.348,0,12.521-2.859,12.521-8.578
			c0-4.42-2.458-7.902-7.374-10.447l-17.334-7.859c-4.302-1.945-7.545-4.362-9.729-7.247c-2.1-2.766-3.158-5.966-3.175-9.602
			c0-6.367,2.518-11.283,7.553-14.748c5.019-3.448,11.301-5.172,18.845-5.172c4.012,0,7.4,0.529,10.165,1.588
			c2.731,1.041,5.036,1.562,6.913,1.562c1.81,0,2.825-0.64,3.047-1.921L71.678,18.392z"/>
	</g>
	<g>
		<path fill="#1B87C9" d="M49.299,17.419c4.012,0,7.4,0.529,10.165,1.588c2.731,1.041,5.036,1.562,6.913,1.562
			c1.81,0,2.825-0.64,3.047-1.921l2.254-0.256l1.356,17.334l-2.509,0.256c-0.239-2.543-1.451-5.436-3.636-8.68
			c-1.417-2.1-3.641-3.854-6.67-5.262c-3.03-1.408-6.67-2.111-10.921-2.111c-7.681,0-11.521,2.688-11.521,8.064
			c0,3.072,0.947,5.334,2.842,6.785c1.725,1.314,4.012,2.705,6.862,4.174l18.435,8.604c7.699,4.096,11.557,9.422,11.573,15.977
			c0,13.365-9.832,20.047-29.496,20.047c-2.97,0-5.829-0.408-8.577-1.229c-3.261-0.99-6.247-2.32-8.962-3.994
			c-1.178-0.734-2.193-1.102-3.047-1.102c-1.929,0-3.063,1.818-3.405,5.455l-2.458-0.256l2.074-18.436l2.509,0.256
			c0.837,5.957,4.481,10.729,10.934,14.312c2.987,1.656,6.631,2.484,10.933,2.484c8.348,0,12.521-2.859,12.521-8.578
			c0-4.42-2.458-7.902-7.374-10.447l-17.334-7.859c-4.302-1.945-7.545-4.362-9.729-7.247c-2.1-2.766-3.158-5.966-3.175-9.602
			c0-6.367,2.518-11.283,7.553-14.748C35.473,19.143,41.755,17.419,49.299,17.419 M49.299,14.419
			c-8.128,0-15.039,1.918-20.543,5.699c-5.876,4.043-8.854,9.837-8.854,17.221c0.02,4.297,1.293,8.133,3.785,11.416
			c2.479,3.272,6.142,6.02,10.883,8.165l17.259,7.826c5.094,2.66,5.686,5.693,5.686,7.748c0,1.668,0,5.578-9.521,5.578
			c-3.767,0-6.955-0.709-9.478-2.109c-5.632-3.127-8.713-7.088-9.418-12.105c-0.191-1.367-1.293-2.428-2.666-2.566l-2.51-0.256
			c-0.103-0.012-0.205-0.016-0.307-0.016c-1.51,0-2.807,1.133-2.979,2.664l-2.074,18.436c-0.09,0.795,0.143,1.592,0.645,2.217
			c0.501,0.623,1.23,1.02,2.026,1.104l2.458,0.256c0.104,0.01,0.207,0.016,0.311,0.016c0.69,0,1.363-0.238,1.902-0.68
			c0.619-0.508,1.01-1.242,1.084-2.041c0.154-1.641,0.453-2.395,0.617-2.695c0.219,0.059,0.627,0.213,1.263,0.609
			c2.933,1.809,6.185,3.258,9.677,4.318c3.024,0.902,6.199,1.357,9.448,1.357c26.858,0,32.496-12.533,32.496-23.047
			c-0.02-7.725-4.448-13.989-13.164-18.625c-0.046-0.024-0.093-0.048-0.141-0.07l-18.38-8.578c-2.66-1.373-4.802-2.674-6.367-3.866
			c-0.406-0.312-1.66-1.272-1.66-4.399c0-1.644,0-5.064,8.521-5.064c3.792,0,7.041,0.616,9.656,1.832
			c2.514,1.168,4.348,2.588,5.447,4.219c1.891,2.807,2.945,5.258,3.137,7.283c0.074,0.796,0.465,1.529,1.082,2.037
			c0.539,0.442,1.213,0.682,1.904,0.682c0.102,0,0.203-0.005,0.305-0.016l2.508-0.256c1.621-0.165,2.814-1.594,2.688-3.219
			l-1.357-17.334c-0.062-0.811-0.453-1.562-1.081-2.08c-0.54-0.445-1.216-0.686-1.909-0.686c-0.112,0-0.226,0.006-0.338,0.02
			l-2.254,0.256c-1.123,0.127-2.061,0.87-2.459,1.894c-0.07,0.005-0.154,0.008-0.25,0.008c-1.502,0-3.469-0.459-5.845-1.365
			C57.441,15.02,53.66,14.419,49.299,14.419L49.299,14.419z"/>
	</g>
	<g>
		<path fill="#58C1EF" d="M68.275,76.252c0-1.871,1.519-3.389,3.39-3.389c1.156,0,2.174,0.58,2.785,1.461
			c2.022-2.91,3.039-6.506,3.039-10.791c-0.017-6.555-3.874-11.881-11.573-15.977l-18.435-8.604
			c-2.851-1.469-5.138-2.859-6.862-4.174c-1.895-1.451-2.842-3.713-2.842-6.785c0-5.377,3.841-8.064,11.521-8.064
			c4.251,0,7.891,0.703,10.921,2.111c1.537,0.715,2.865,1.52,3.987,2.412c0.619-0.806,1.583-1.334,2.679-1.334
			c1.871,0,3.39,1.518,3.39,3.389c0,1.368-0.814,2.539-1.98,3.075c1.304,2.335,2.049,4.469,2.23,6.399l2.509-0.256l-1.356-17.334
			l-2.254,0.256c-0.222,1.281-1.237,1.921-3.047,1.921c-1.877,0-4.182-0.521-6.913-1.562c-2.765-1.059-6.153-1.588-10.165-1.588
			c-7.544,0-13.826,1.724-18.845,5.172c-5.035,3.465-7.553,8.381-7.553,14.748c0.017,3.636,1.075,6.836,3.175,9.602
			c0.648,0.855,1.4,1.665,2.234,2.438c0.908-0.539,1.964-0.854,3.096-0.854c3.359,0,6.084,2.725,6.084,6.084
			c0,0.113-0.012,0.223-0.018,0.334l3.58,1.623c0.884-3.119,3.745-5.408,7.146-5.408c4.104,0,7.433,3.33,7.433,7.434
			c0,1.537-0.467,2.963-1.265,4.148c1.64,0.988,2.952,2.104,3.935,3.344c0.93-0.574,2.021-0.912,3.193-0.912
			c3.359,0,6.084,2.725,6.084,6.084s-2.725,6.082-6.084,6.082c-0.761,0-1.486-0.146-2.158-0.402
			c-1.771,2.756-5.55,4.137-11.344,4.137c-4.302,0-7.945-0.828-10.933-2.484c-6.452-3.584-10.097-8.355-10.934-14.312l-2.509-0.256
			l-2.074,18.436l2.458,0.256c0.342-3.637,1.477-5.455,3.405-5.455c0.854,0,1.869,0.367,3.047,1.102
			c2.715,1.674,5.701,3.004,8.962,3.994c2.748,0.82,5.607,1.229,8.577,1.229c9.488,0,16.68-1.561,21.59-4.672
			C68.793,78.287,68.275,77.334,68.275,76.252z M27.635,34.65c-1.276,0-2.312-1.035-2.312-2.312s1.036-2.312,2.312-2.312
			c1.277,0,2.312,1.035,2.312,2.312S28.912,34.65,27.635,34.65z M35.912,46.185c-2.488,0-4.506-2.018-4.506-4.506
			s2.018-4.506,4.506-4.506s4.506,2.018,4.506,4.506S38.4,46.185,35.912,46.185z M43.079,49.618c-1.276,0-2.312-1.035-2.312-2.312
			s1.036-2.312,2.312-2.312s2.312,1.035,2.312,2.312S44.355,49.618,43.079,49.618z M57.944,51.604c-1.276,0-2.312-1.035-2.312-2.312
			s1.036-2.312,2.312-2.312c1.277,0,2.312,1.035,2.312,2.312S59.222,51.604,57.944,51.604z M64.886,62.898
			c-1.873,0-3.391-1.518-3.391-3.391c0-1.871,1.518-3.389,3.391-3.389c1.871,0,3.39,1.518,3.39,3.389
			C68.275,61.381,66.757,62.898,64.886,62.898z"/>
	</g>
</g>
</svg>
