<?xml version="1.0" encoding="utf-8"?>
<!-- Generator: Adobe Illustrator 15.1.0, SVG Export Plug-In . SVG Version: 6.00 Build 0)  -->
<!DOCTYPE svg PUBLIC "-//W3C//DTD SVG 1.1//EN" "http://www.w3.org/Graphics/SVG/1.1/DTD/svg11.dtd">
<svg version="1.1" id="Layer_1" xmlns="http://www.w3.org/2000/svg" xmlns:xlink="http://www.w3.org/1999/xlink" x="0px" y="0px"
	 width="200px" height="400px" viewBox="0 0 200 400" enable-background="new 0 0 200 400" xml:space="preserve">
<g>
	<path fill="none" stroke="#1B87C9" stroke-width="3" stroke-linecap="round" stroke-linejoin="round" stroke-miterlimit="10" d="
		M163.481,187.227c0,5.84-4.734,10.574-10.573,10.574s-10.573-4.734-10.573-10.574c0,5.84-4.734,10.574-10.572,10.574
		c-5.84,0-10.574-4.734-10.574-10.574c0,5.84-4.734,10.574-10.573,10.574s-10.573-4.734-10.573-10.574
		c0,5.84-4.734,10.574-10.573,10.574s-10.573-4.734-10.573-10.574c0,5.84-4.734,10.574-10.574,10.574
		c-5.838,0-10.572-4.734-10.572-10.574c0,5.84-4.734,10.574-10.573,10.574c-5.84,0-10.573-4.734-10.573-10.574"/>
	<line fill="none" stroke="#455B65" stroke-miterlimit="10" x1="108.1" y1="37.773" x2="105.672" y2="37.773"/>
	<line fill="none" stroke="#455B65" stroke-miterlimit="10" x1="107.709" y1="32.729" x2="109.749" y2="32.729"/>
	<line fill="none" stroke="#455B65" stroke-miterlimit="10" x1="70.316" y1="83.088" x2="74.626" y2="78.779"/>
	<line fill="none" stroke="#455B65" stroke-miterlimit="10" x1="68.098" y1="72.25" x2="63.788" y2="76.561"/>
	<path fill="none" stroke="#455B65" stroke-miterlimit="10" d="M68.219,78.658c-1.803-1.803-2.771-3.758-2.164-4.365l-4.31,4.311
		c-0.607,0.607,0.36,2.561,2.163,4.365c1.804,1.803,3.758,2.77,4.365,2.162l4.31-4.309C71.976,81.43,70.021,80.461,68.219,78.658z"
		/>
	<path fill="none" stroke="#455B65" stroke-miterlimit="10" d="M94.666,53.221c-5.026,0-9.561,2.049-12.849,5.346L81.8,58.549
		L67.566,72.783c-0.607,0.607,0.36,2.561,2.164,4.363c1.803,1.803,3.756,2.771,4.363,2.164l10.759-10.76"/>
	<path fill="none" stroke="#455B65" stroke-miterlimit="10" d="M84.043,100.076v1.26c0,2.34,7.163,4.236,15.999,4.236
		c8.835,0,15.999-1.896,15.999-4.236v-1.258"/>
	<path fill="none" stroke="#455B65" stroke-miterlimit="10" d="M105.541,60.057v-8.934c0-0.449-0.363-0.812-0.812-0.812
		c0,0.684-2.098,1.24-4.686,1.24s-4.686-0.557-4.686-1.24c-0.449,0-0.812,0.363-0.812,0.812v8.918"/>
	<path fill="none" stroke="#455B65" stroke-miterlimit="10" d="M104.541,25.854c0-0.551-2.014-1-4.498-1s-4.498,0.449-4.498,1l-1,3
		c0,0.805,2.461,1.457,5.498,1.457s5.498-0.652,5.498-1.457L104.541,25.854z"/>
	<path fill="none" stroke="#455B65" stroke-miterlimit="10" d="M117.023,88.004V76.109c0-9.379-7.603-16.98-16.98-16.98
		c-9.379,0-16.981,7.602-16.981,16.98v11.893"/>
	<path fill="none" stroke="#455B65" stroke-miterlimit="10" d="M83.062,95.854v2.729h0.001c0,2.484,7.602,4.496,16.98,4.496
		c9.378,0,16.98-2.012,16.98-4.496v-2.729"/>
	<path fill="none" stroke="#455B65" stroke-miterlimit="10" d="M83.062,90.311l-0.001-2.307c-1.343,0.691-2.101,1.475-2.101,2.307
		c0,2.789,8.543,5.051,19.082,5.051s19.082-2.262,19.082-5.051c0-0.832-0.759-1.615-2.102-2.307v2.307
		c0,2.482-7.603,4.494-16.98,4.494C90.664,94.805,83.062,92.793,83.062,90.311z"/>
	<path fill="none" stroke="#455B65" stroke-miterlimit="10" d="M117.023,95.854c0-0.736,0.354-1.42,0.927-1.795
		c-2.688,1.928-9.69,3.303-17.907,3.303c-8.213,0-15.216-1.375-17.906-3.301c0.572,0.375,0.926,1.057,0.926,1.793l-0.001,2.729
		h0.001c0,2.484,7.602,4.496,16.98,4.496c9.378,0,16.98-2.012,16.98-4.496V95.854z"/>
	<path fill="none" stroke="#455B65" stroke-miterlimit="10" d="M119.125,92.311v-2c0,2.789-8.543,5.051-19.082,5.051
		S80.961,93.1,80.961,90.311v2c0,2.789,8.543,5.051,19.082,5.051S119.125,95.1,119.125,92.311z"/>
	<path fill="none" stroke="#455B65" stroke-miterlimit="10" d="M95.357,41.068v9.242c0,0.684,2.098,1.24,4.686,1.24
		s4.686-0.557,4.686-1.24v-9.242"/>
	<path fill="none" stroke="#455B65" stroke-miterlimit="10" d="M94.545,40.311c0-4.299-0.916-6.832-2.168-7.562
		c-0.242-0.391-0.384-0.85-0.384-1.344c0-1.408,1.143-2.551,2.552-2.551c0,0.805,2.461,1.457,5.498,1.457s5.498-0.652,5.498-1.457
		c1.409,0,2.552,1.143,2.552,2.551c0,0.494-0.142,0.953-0.384,1.344c-1.252,0.73-2.168,3.264-2.168,7.562
		c0,0.803-2.461,1.455-5.498,1.455S94.545,41.113,94.545,40.311z"/>
	<path fill="none" stroke="#455B65" stroke-miterlimit="10" d="M144.229,41.729c-2.562,0.5-13.562,0.875-18.188,0
		c-4.494-0.85-7.408-4.465-11.077-8.258c-0.078-0.086-0.157-0.172-0.242-0.252c-0.026-0.025-0.051-0.053-0.077-0.078
		c-0.773-0.793-1.687-1.082-2.591-1.023c-0.047-0.002-0.091-0.014-0.138-0.014c-2.071,0-3.77,1.531-4.064,3.52
		c-0.195,0.734-0.159,1.486,0.241,2.15c0.002,0.004,0.005,0.006,0.007,0.01c0.28,0.688,0.745,1.271,1.326,1.715
		c2.433,2.633,6.738,5.479,10.617,6.578c4.752,1.35,21.748-1.973,24.186-2.473S146.791,41.229,144.229,41.729z"/>
	<g>
		<path fill="#D0D8DC" d="M70.32,75.473c-0.256,0-0.512-0.098-0.707-0.293c-0.391-0.391-0.391-1.023,0-1.414l12.107-12.107
			c0.391-0.391,1.023-0.391,1.414,0s0.391,1.023,0,1.414L71.027,75.18C70.832,75.375,70.576,75.473,70.32,75.473z"/>
	</g>
	<g>
		<path fill="#D0D8DC" d="M64.479,81.312c-0.256,0-0.512-0.098-0.707-0.293c-0.391-0.391-0.391-1.023,0-1.414l1.417-1.416
			c0.391-0.391,1.023-0.391,1.414,0s0.391,1.023,0,1.414l-1.417,1.416C64.991,81.215,64.735,81.312,64.479,81.312z"/>
	</g>
	<g>
		<path fill="#D0D8DC" d="M88.679,72.332c-0.13,0-0.262-0.025-0.39-0.078c-0.509-0.215-0.746-0.803-0.531-1.311
			c1.532-3.627,4.565-6.379,8.32-7.547c0.53-0.168,1.088,0.131,1.252,0.658s-0.131,1.088-0.658,1.252
			c-3.191,0.992-5.769,3.332-7.072,6.414C89.438,72.104,89.068,72.332,88.679,72.332z"/>
	</g>
	<g>
		<path fill="#D0D8DC" d="M100.058,33.766c-0.005,0-0.01,0-0.016,0c-2.07,0-3.979-0.293-5.106-0.787
			c-0.506-0.221-0.737-0.811-0.516-1.316c0.221-0.504,0.811-0.736,1.316-0.516c0.686,0.299,2.176,0.619,4.307,0.619
			c0.005,0,0.01,0,0.014,0c0.651,0,1.285-0.031,1.885-0.094c0.557-0.066,1.041,0.342,1.099,0.893
			c0.057,0.549-0.343,1.039-0.892,1.098C101.48,33.73,100.777,33.766,100.058,33.766z"/>
	</g>
	<g>
		<path fill="#D0D8DC" d="M110.328,37.311c-0.553,0-1-0.449-1-1c0-1.576,1.282-2.859,2.857-2.859c0.553,0,1,0.447,1,1s-0.447,1-1,1
			c-0.473,0-0.857,0.385-0.857,0.859C111.328,36.861,110.881,37.311,110.328,37.311z"/>
	</g>
	<path d="M100.043,24.854c2.484,0,4.498,0.449,4.498,1l1,3c1.409,0,2.552,1.143,2.552,2.551c0,0.486-0.14,0.938-0.375,1.324h2.031
		c0.629-0.395,1.368-0.625,2.167-0.625c0.047,0,0.091,0.012,0.138,0.014c0.074-0.006,0.147-0.008,0.222-0.008
		c0.831,0,1.659,0.303,2.369,1.031c0.026,0.025,0.051,0.053,0.077,0.078c0.085,0.08,0.164,0.166,0.242,0.252
		c3.669,3.793,6.583,7.408,11.077,8.258c2.014,0.381,5.233,0.525,8.44,0.525c4.161,0,8.3-0.244,9.747-0.525
		c0.297-0.059,0.558-0.084,0.783-0.084c1.719,0,1.372,1.518-0.783,1.959c-2.031,0.416-14.174,2.793-20.914,2.793
		c-1.348,0-2.479-0.096-3.271-0.32c-3.879-1.1-8.185-3.945-10.617-6.578c-0.581-0.443-1.046-1.027-1.326-1.715
		c-0.002-0.004-0.005-0.006-0.007-0.01h-2.421c-0.08,0.768-0.131,1.602-0.131,2.537c0,0.277-0.301,0.537-0.812,0.758v9.242
		c0.449,0,0.812,0.363,0.812,0.812v8.934c6.676,2.287,11.482,8.602,11.482,16.053v11.895c1.343,0.691,2.102,1.475,2.102,2.307v2
		c0,0.666-0.5,1.301-1.387,1.885c0.053-0.035,0.11-0.07,0.164-0.104c-0.544,0.381-0.879,1.045-0.879,1.762v2.729
		c0,0.525-0.357,1.027-0.982,1.496v1.258c0,0.691-0.639,1.342-1.747,1.918v6.59c0.031,8.973,5.451,16.643,13.286,20.229
		c21.283,10.254,35.963,31.963,35.963,57.17c0,2.205-0.113,4.383-0.332,6.529l-8.168,160.373c0,12.52-24.624,22.666-55,22.666
		c-30.377,0-55-10.146-55-22.666l-8.168-160.373c-0.219-2.146-0.332-4.324-0.332-6.529c-0.001-25.182,14.682-46.887,35.93-57.154
		c7.831-3.582,13.282-11.264,13.318-20.232v-6.6c-1.109-0.578-1.748-1.229-1.748-1.92v-1.258c-0.624-0.469-0.98-0.971-0.98-1.496
		h-0.001v-2.736c-0.003-0.711-0.333-1.371-0.873-1.75c0.053,0.033,0.109,0.066,0.161,0.1c-0.889-0.582-1.389-1.219-1.389-1.885v-2
		c0-0.832,0.758-1.615,2.101-2.307V76.109c0-2.719,0.655-5.279,1.792-7.559L74.626,78.779l-2.043,2.043l-2.267,2.266l-2.043,2.043
		c-0.123,0.123-0.301,0.182-0.522,0.182c-0.87,0-2.404-0.906-3.843-2.344c-1.803-1.805-2.771-3.758-2.163-4.365l4.31-4.311v0.002
		l1.512-1.512L81.8,58.549l0.018,0.018c3.261-3.27,7.75-5.307,12.728-5.34v-2.104c0-0.449,0.363-0.812,0.812-0.812v-9.242
		c-0.512-0.221-0.812-0.48-0.812-0.758c0-4.299-0.916-6.832-2.168-7.562c-0.242-0.391-0.384-0.85-0.384-1.344
		c0-1.408,1.143-2.551,2.552-2.551l1-3C95.545,25.303,97.559,24.854,100.043,24.854 M117.023,94.609
		c0.176-0.092,0.345-0.184,0.5-0.277c-0.154,0.094-0.325,0.186-0.5,0.275V94.609 M82.59,94.35c0.147,0.088,0.307,0.174,0.472,0.258
		l0,0C82.897,94.521,82.737,94.436,82.59,94.35c-0.009-0.006-0.019-0.012-0.027-0.018C82.571,94.338,82.581,94.344,82.59,94.35
		 M117.95,94.059c-0.016,0.012-0.031,0.021-0.048,0.033C117.918,94.08,117.934,94.07,117.95,94.059 M82.137,94.061
		c0.018,0.01,0.034,0.021,0.052,0.035C82.171,94.084,82.153,94.072,82.137,94.061 M100.043,21.854c-4.549,0-7.048,1.125-7.442,3.348
		l-0.39,1.168c-1.898,0.883-3.218,2.809-3.218,5.035c0,1.035,0.289,2.045,0.835,2.926l0.393,0.633l0.503,0.293
		c0.265,0.391,0.821,1.873,0.821,5.055c0,0.459,0.105,1.359,0.812,2.215v6.246c-0.376,0.48-0.641,1.051-0.752,1.674
		c-3.51,0.508-6.81,1.885-9.643,4.023l-0.146-0.145l-2.139,2.104L65.445,70.662l-1.512,1.51l-4.31,4.311
		c-1.987,1.986-1.158,5.285,2.162,8.607c0.971,0.969,3.492,3.223,5.965,3.223c1.021,0,1.961-0.377,2.645-1.061l2.042-2.041
		l2.268-2.268l2.042-2.043l3.314-3.314v8.787c-1.695,1.355-2.101,2.834-2.101,3.938v2c0,1.062,0.383,2.559,2.101,3.93v2.342
		c0.001,0.746,0.199,1.738,0.981,2.738v0.016c0,0.988,0.342,2.301,1.748,3.51v5.01c-0.03,7.543-4.462,14.254-11.566,17.504
		l-0.028,0.014l-0.029,0.014c-11.102,5.365-20.491,13.688-27.152,24.066c-6.852,10.674-10.472,23.051-10.472,35.789
		c0,2.246,0.114,4.52,0.34,6.758l8.16,160.227c0.047,7.318,6.423,13.963,17.966,18.719c10.741,4.428,24.96,6.865,40.034,6.865
		s29.292-2.438,40.034-6.865c11.543-4.756,17.919-11.4,17.966-18.719L166.203,194c0.226-2.238,0.34-4.512,0.34-6.758
		c0-12.754-3.622-25.139-10.476-35.812c-6.666-10.383-16.066-18.703-27.186-24.061l-0.026-0.014l-0.027-0.012
		c-7.088-3.242-11.508-9.953-11.534-17.51v-4.99c1.405-1.209,1.747-2.52,1.747-3.508v-0.014c0.785-1.004,0.982-1.996,0.982-2.74
		V96.24c1.718-1.371,2.102-2.869,2.102-3.93v-2c0-1.104-0.405-2.582-2.102-3.938V76.109c0-7.797-4.534-14.809-11.482-18.07v-6.916
		c0-0.887-0.304-1.703-0.812-2.352v-6.246c0.072-0.088,0.139-0.178,0.199-0.266c3.025,2.973,7.442,5.609,11.296,6.703
		c1.028,0.291,2.367,0.434,4.091,0.434c7.515,0,20.949-2.738,21.517-2.854c3.18-0.652,4.435-2.854,4.255-4.623
		c-0.16-1.578-1.503-3.275-4.074-3.275c-0.427,0-0.883,0.047-1.357,0.139c-1.009,0.197-4.758,0.471-9.173,0.471
		c-3.473,0-6.271-0.168-7.883-0.473c-2.992-0.566-5.265-2.963-8.141-5.996c-0.427-0.449-0.86-0.906-1.306-1.367
		c-0.104-0.113-0.211-0.227-0.322-0.334l-0.042-0.043c-1.232-1.262-2.794-1.932-4.513-1.932c-0.044,0-0.088,0-0.132,0.002
		c-0.069-0.006-0.146-0.008-0.228-0.008c-0.429,0-0.854,0.039-1.271,0.115c-0.541-1.256-1.532-2.275-2.77-2.85l-0.39-1.168
		C107.091,22.979,104.592,21.854,100.043,21.854L100.043,21.854z"/>
	<g>
		<path fill="#1B87C9" d="M127.58,130.072c-7.835-3.586-13.255-11.256-13.286-20.229v-6.59c-0.78,0.406-1.79,0.775-3,1.092v5.508
			c0.034,9.916,5.784,18.699,15.009,22.934c10.107,4.875,18.654,12.441,24.716,21.883c6.23,9.707,9.524,20.969,9.524,32.572
			c0,2.07-0.106,4.164-0.316,6.227l-0.008,0.074l-0.004,0.076l-8.168,160.373l-0.004,0.076v0.076c0,9.303-21.355,19.666-52,19.666
			s-52-10.363-52-19.666v-0.076l-0.004-0.076l-8.168-160.373l-0.004-0.076l-0.008-0.074c-0.21-2.062-0.316-4.156-0.316-6.227
			c0-11.588,3.292-22.844,9.521-32.549c6.057-9.438,14.593-17.008,24.686-21.891c9.099-4.176,15.002-13.176,15.041-22.947v-5.51
			c-1.21-0.316-2.22-0.686-3-1.092v6.602c-0.036,8.969-5.487,16.65-13.318,20.232c-21.248,10.268-35.931,31.973-35.93,57.154
			c0,2.205,0.113,4.383,0.332,6.529l8.168,160.373c0,12.52,24.623,22.666,55,22.666c30.376,0,55-10.146,55-22.666l8.168-160.373
			c0.219-2.146,0.332-4.324,0.332-6.529C163.543,162.035,148.863,140.326,127.58,130.072z"/>
	</g>
</g>
</svg>
