<?xml version="1.0" encoding="utf-8"?>
<!-- Generator: Adobe Illustrator 15.1.0, SVG Export Plug-In . SVG Version: 6.00 Build 0)  -->
<!DOCTYPE svg PUBLIC "-//W3C//DTD SVG 1.1//EN" "http://www.w3.org/Graphics/SVG/1.1/DTD/svg11.dtd">
<svg version="1.1" id="Layer_1" xmlns="http://www.w3.org/2000/svg" xmlns:xlink="http://www.w3.org/1999/xlink" x="0px" y="0px"
	 width="200px" height="400px" viewBox="0 0 200 400" enable-background="new 0 0 200 400" xml:space="preserve">
<g>
	<circle fill="none" stroke="#1B87C9" stroke-width="3" stroke-miterlimit="10" cx="136.384" cy="223.719" r="7.834"/>
	<circle fill="none" stroke="#1B87C9" stroke-width="3" stroke-miterlimit="10" cx="146.884" cy="207.051" r="6.416"/>
	<circle fill="none" stroke="#1B87C9" stroke-width="3" stroke-miterlimit="10" cx="132.384" cy="243.717" r="6.416"/>
	<circle fill="none" stroke="#1B87C9" stroke-width="2" stroke-miterlimit="10" cx="132.384" cy="208.676" r="4.791"/>
	<circle fill="none" stroke="#1B87C9" stroke-miterlimit="10" cx="139.259" cy="198.053" r="2.541"/>
	<circle fill="none" stroke="#1B87C9" stroke-width="2" stroke-miterlimit="10" cx="144.259" cy="236.053" r="3.666"/>
	<circle fill="none" stroke="#1B87C9" stroke-width="3" stroke-miterlimit="10" cx="83.134" cy="329.469" r="7.834"/>
	<circle fill="none" stroke="#1B87C9" stroke-width="3" stroke-miterlimit="10" cx="89.301" cy="351.219" r="8.75"/>
	<circle fill="none" stroke="#1B87C9" stroke-width="3" stroke-miterlimit="10" cx="65.175" cy="349.469" r="8.875"/>
	<circle fill="none" stroke="#1B87C9" stroke-miterlimit="10" cx="83.134" cy="303.969" r="3.125"/>
	<circle fill="none" stroke="#1B87C9" stroke-width="2" stroke-miterlimit="10" cx="100.052" cy="311.01" r="3.917"/>
	<circle fill="none" stroke="#1B87C9" stroke-width="2" stroke-miterlimit="10" cx="70.133" cy="321.635" r="3.917"/>
	<path fill="#1B87C9" d="M123.227,161.695c-0.002,0-0.004-0.002-0.006-0.002c-2.585-0.285-4.03-2.65-6.649-2.662
		c-2.312-0.012-4.353,1.965-5.709,1.744c-0.027-0.004-0.053,0.002-0.079,0c-1.877-0.086-3.76-0.15-5.644-0.191
		c-0.104-0.031-0.216-0.053-0.34-0.061c-1.819-0.092-1.625-2.867-4.312-2.992c-2.999-0.141-3.83,1.914-5.018,1.875
		c-1.188-0.041-0.879-1-3.482-1s-3.938,2.428-6.184,2.555l-0.001,0.002c-6.266,0.387-12.388,1.027-18.089,1.912v-0.004
		c-4.352,0.473-3.227-2.152-7.039-1.777c-2.488,0.244-2.565,1.881-4,2.438c-0.859,0.334-1.292,0.041-2.375,0.375
		c-1.083,0.332-2.633,2.504-5.26,3.369l0.003,0.006c-8.263,2.914-13.505,6.74-13.505,11.424c0,4.844,5.6,8.771,14.355,11.723
		c0.157,0.074,0.318,0.135,0.488,0.164c0.019,0.004,0.034,0.008,0.053,0.01c0.878,0.287,1.783,0.566,2.72,0.834
		c1.696,0.826,2.247,1.861,3.98,2.307c2.103,0.539,3.818-0.41,6.915,0.186c0.032,0.006,0.061,0.006,0.092,0.012
		c2.801,0.502,5.726,0.941,8.739,1.316c0.012,0.002,0.021,0.008,0.032,0.01c2.385,0.281,2.137,0.891,3.824,0.891
		c0.705,0,1.393-0.139,2.688,0c0.84,0.09,2.056,0.682,2.875,0.73c2.084,0.125,4.623-0.371,6.451-0.275c0.008,0,0.015-0.002,0.021,0
		c3.748,0.182,7.527,0.275,11.279,0.275c8.43,0,16.997-0.467,25.022-1.375c0.013-0.002,0.026,0.002,0.039,0
		c1.717-0.188,4.404,0.359,5.624,0.207c2-0.25,2.444-1.143,3.929-1.549c0.016-0.006,0.028-0.006,0.044-0.012
		c0.68-0.115,1.357-0.232,2.022-0.355c1.485-0.102,2.238,0.244,3.067,0.041c1.693-0.414,1.069-0.877,2.443-1.188
		s3.264,0.154,4.557-0.25c2-0.625,2.934-1.908,4.5-2.312c0.813-0.209,2.194-0.67,3.062,0.25c1.578,1.67,4.5,0.25,5.062-2.125
		c0.095-0.398,0.143-1.189,0.158-2.164c3.16-2.148,4.981-4.6,4.981-7.35C164.564,169.836,145.812,164.033,123.227,161.695z
		 M157.693,180.643c0,1.07-0.867,1.938-1.938,1.938s-1.938-0.867-1.938-1.938s0.867-1.938,1.938-1.938
		S157.693,179.572,157.693,180.643z M156.238,176.32c0,0.92-0.745,1.664-1.665,1.664s-1.665-0.744-1.665-1.664
		s0.745-1.666,1.665-1.666S156.238,175.4,156.238,176.32z M116.571,159.711c1.277,0,2.312,1.035,2.312,2.312
		s-1.035,2.312-2.312,2.312s-2.312-1.035-2.312-2.312S115.294,159.711,116.571,159.711z M100.052,158.678
		c1.403,0,2.541,1.139,2.541,2.541c0,1.404-1.138,2.541-2.541,2.541s-2.541-1.137-2.541-2.541
		C97.511,159.816,98.648,158.678,100.052,158.678z M92.05,159.707c1.197,0,2.166,0.971,2.166,2.166c0,1.197-0.969,2.168-2.166,2.168
		c-1.195,0-2.166-0.971-2.166-2.168C89.884,160.678,90.854,159.707,92.05,159.707z M61.051,162.023c1.655,0,2.999,1.344,2.999,3
		s-1.344,3-2.999,3c-1.656,0-3-1.344-3-3S59.395,162.023,61.051,162.023z M55.26,165.023c1.035,0,1.875,0.84,1.875,1.875
		s-0.84,1.875-1.875,1.875s-1.875-0.84-1.875-1.875S54.225,165.023,55.26,165.023z M58.218,192.99c-1.565,0-2.833-1.27-2.833-2.834
		s1.268-2.832,2.833-2.832s2.833,1.268,2.833,2.832S59.783,192.99,58.218,192.99z M77.508,194.654c-0.92,0-1.665-0.746-1.665-1.664
		c0-0.92,0.745-1.666,1.665-1.666s1.665,0.746,1.665,1.666C79.173,193.908,78.428,194.654,77.508,194.654z M82.759,196.156
		c-1.403,0-2.541-1.139-2.541-2.541c0-1.404,1.138-2.541,2.541-2.541s2.541,1.137,2.541,2.541
		C85.3,195.018,84.162,196.156,82.759,196.156z M130.238,194.803c-1.185,0-2.146-0.961-2.146-2.146s0.961-2.145,2.146-2.145
		s2.146,0.959,2.146,2.145S131.423,194.803,130.238,194.803z M139.26,192.656c-0.967,0-1.75-0.783-1.75-1.75
		c0-0.965,0.783-1.748,1.75-1.748c0.966,0,1.749,0.783,1.749,1.748C141.009,191.873,140.226,192.656,139.26,192.656z M141.8,188.535
		c-1.562,0.371-1.5-0.504-2.938-0.191c-2.12,0.461-1.688,1.688-4.625,2.188c-1.429,0.242-1.75-1.188-4.5-0.812
		c-2.17,0.295-4.041,2.629-7.016,3.002c-6.754,0.738-14.337,1.166-22.67,1.166c-3.976,0-7.772-0.102-11.4-0.283
		c-2.688-0.18-2.653-2.707-4.914-3.385c-1.875-0.562-2.514,0.445-3.52,0.562s-2.082-0.469-2.668-0.438
		c-2.312,0.125-3.268,2.014-4.637,1.832c-0.001,0-0.002,0-0.004,0c-2.723-0.375-5.281-0.805-7.681-1.277
		c-2.115-0.424-3.496-4.01-6.304-4.617c-2.309-0.5-5.29,1.572-8.527,0.34c-5.761-2.447-8.859-5.238-8.859-7.916
		c0-2.688,3.121-5.49,8.926-7.945c2.72-0.91,4.503-1.041,5.503-1.291s0.751-0.641,2.084-0.695s2.166,0.473,3.916,0
		c1.433-0.387,3.141-1.855,4.721-2.537c6.013-1.109,12.994-1.941,20.844-2.375c1.467,0.332,2.882,1.137,4.019,1.162
		c1.992,0.047,3.426-1.17,4.364-1.459c0.17-0.004,0.336-0.01,0.507-0.012c0.808,0.152,1.767,1.047,3.629,1.041
		c2.218-0.008,3.223-1.012,4.684-1.02c2.089,0.041,4.127,0.109,6.112,0.201c1.768,0.127,3.258,1.135,5.142,1.277
		c1.746,0.131,3.605-0.514,5.502-0.496c16.312,1.664,27.894,5.15,33.414,9.02c-0.074,0.006-0.143,0.014-0.229,0.018
		c-1.562,0.062-2.194,1.26-3,2.438c-0.812,1.188-1.734,0.141-2.75,1.938c-0.812,1.438,0.562,1.812-0.625,2.75
		c-0.993,0.783-1.138,0.16-2.312,0.062c-1.5-0.125-2.938,1.438-2.625,2.875c0.421,1.936,0.591,2.045-0.375,3.125
		C141.8,188.109,142.32,188.41,141.8,188.535z M152.908,179.24c0,0.967-0.783,1.75-1.749,1.75c-0.967,0-1.75-0.783-1.75-1.75
		s0.783-1.75,1.75-1.75C152.125,177.49,152.908,178.273,152.908,179.24z M147.589,183.309c0,0.918-0.745,1.664-1.665,1.664
		s-1.665-0.746-1.665-1.664c0-0.92,0.745-1.666,1.665-1.666S147.589,182.389,147.589,183.309z M145.384,191.699
		c-1.403,0-2.541-1.139-2.541-2.541c0-1.404,1.138-2.541,2.541-2.541s2.541,1.137,2.541,2.541
		C147.925,190.561,146.787,191.699,145.384,191.699z M151.508,188.535c-1.979,0-3.583-1.605-3.583-3.584s1.604-3.582,3.583-3.582
		s3.583,1.604,3.583,3.582S153.486,188.535,151.508,188.535z M156.238,189.947c-0.92,0-1.665-0.746-1.665-1.666
		s0.745-1.664,1.665-1.664s1.665,0.744,1.665,1.664S157.158,189.947,156.238,189.947z"/>
	<line fill="none" stroke="#455B65" stroke-miterlimit="10" x1="108.108" y1="37.014" x2="105.681" y2="37.014"/>
	<line fill="none" stroke="#455B65" stroke-miterlimit="10" x1="107.718" y1="31.969" x2="109.758" y2="31.969"/>
	<line fill="none" stroke="#455B65" stroke-miterlimit="10" x1="70.325" y1="82.328" x2="74.635" y2="78.02"/>
	<line fill="none" stroke="#455B65" stroke-miterlimit="10" x1="68.106" y1="71.49" x2="63.797" y2="75.801"/>
	<path fill="none" stroke="#455B65" stroke-miterlimit="10" d="M68.228,77.898c-1.803-1.803-2.771-3.758-2.164-4.365l-4.31,4.311
		c-0.607,0.607,0.36,2.561,2.163,4.365c1.804,1.803,3.758,2.77,4.365,2.162l4.31-4.309C71.984,80.67,70.03,79.701,68.228,77.898z"/>
	<path fill="none" stroke="#455B65" stroke-miterlimit="10" d="M94.675,52.461c-5.026,0-9.561,2.049-12.849,5.346l-0.018-0.018
		L67.575,72.023c-0.607,0.607,0.36,2.561,2.164,4.363c1.803,1.803,3.756,2.771,4.363,2.164l10.759-10.76"/>
	<path fill="none" stroke="#455B65" stroke-miterlimit="10" d="M84.052,99.316v1.26c0,2.34,7.163,4.236,15.999,4.236
		c8.835,0,15.999-1.896,15.999-4.236v-1.258"/>
	<path fill="none" stroke="#455B65" stroke-miterlimit="10" d="M105.55,59.297v-8.934c0-0.449-0.363-0.812-0.812-0.812
		c0,0.684-2.098,1.24-4.686,1.24s-4.686-0.557-4.686-1.24c-0.449,0-0.812,0.363-0.812,0.812v8.918"/>
	<path fill="none" stroke="#455B65" stroke-miterlimit="10" d="M104.55,25.094c0-0.551-2.014-1-4.498-1s-4.498,0.449-4.498,1l-1,3
		c0,0.805,2.461,1.457,5.498,1.457s5.498-0.652,5.498-1.457L104.55,25.094z"/>
	<path fill="none" stroke="#455B65" stroke-miterlimit="10" d="M117.032,87.244V75.35c0-9.379-7.603-16.98-16.98-16.98
		c-9.379,0-16.981,7.602-16.981,16.98v11.893"/>
	<path fill="none" stroke="#455B65" stroke-miterlimit="10" d="M83.07,95.094v2.729h0.001c0,2.484,7.602,4.496,16.98,4.496
		c9.378,0,16.98-2.012,16.98-4.496v-2.729"/>
	<path fill="none" stroke="#455B65" stroke-miterlimit="10" d="M83.071,89.551l-0.001-2.307c-1.343,0.691-2.101,1.475-2.101,2.307
		c0,2.789,8.543,5.051,19.082,5.051s19.082-2.262,19.082-5.051c0-0.832-0.759-1.615-2.102-2.307v2.307
		c0,2.482-7.603,4.494-16.98,4.494C90.673,94.045,83.071,92.033,83.071,89.551z"/>
	<path fill="none" stroke="#455B65" stroke-miterlimit="10" d="M117.032,95.094c0-0.736,0.354-1.42,0.927-1.795
		c-2.688,1.928-9.69,3.303-17.907,3.303c-8.213,0-15.216-1.375-17.906-3.301c0.572,0.375,0.926,1.057,0.926,1.793l-0.001,2.729
		h0.001c0,2.484,7.602,4.496,16.98,4.496c9.378,0,16.98-2.012,16.98-4.496V95.094z"/>
	<path fill="none" stroke="#455B65" stroke-miterlimit="10" d="M119.134,91.551v-2c0,2.789-8.543,5.051-19.082,5.051
		S80.97,92.34,80.97,89.551v2c0,2.789,8.543,5.051,19.082,5.051S119.134,94.34,119.134,91.551z"/>
	<path fill="none" stroke="#455B65" stroke-miterlimit="10" d="M95.366,40.309v9.242c0,0.684,2.098,1.24,4.686,1.24
		s4.686-0.557,4.686-1.24v-9.242"/>
	<path fill="none" stroke="#455B65" stroke-miterlimit="10" d="M94.554,39.551c0-4.299-0.916-6.832-2.168-7.562
		c-0.242-0.391-0.384-0.85-0.384-1.344c0-1.408,1.143-2.551,2.552-2.551c0,0.805,2.461,1.457,5.498,1.457s5.498-0.652,5.498-1.457
		c1.409,0,2.552,1.143,2.552,2.551c0,0.494-0.142,0.953-0.384,1.344c-1.252,0.73-2.168,3.264-2.168,7.562
		c0,0.803-2.461,1.455-5.498,1.455S94.554,40.354,94.554,39.551z"/>
	<path fill="none" stroke="#455B65" stroke-miterlimit="10" d="M144.237,40.969c-2.562,0.5-13.562,0.875-18.188,0
		c-4.494-0.85-7.408-4.465-11.077-8.258c-0.078-0.086-0.157-0.172-0.242-0.252c-0.026-0.025-0.051-0.053-0.077-0.078
		c-0.773-0.793-1.687-1.082-2.591-1.023c-0.047-0.002-0.091-0.014-0.138-0.014c-2.071,0-3.77,1.531-4.064,3.52
		c-0.195,0.734-0.159,1.486,0.241,2.15c0.002,0.004,0.005,0.006,0.007,0.01c0.28,0.688,0.745,1.271,1.326,1.715
		c2.433,2.633,6.738,5.479,10.617,6.578c4.752,1.35,21.748-1.973,24.186-2.473S146.8,40.469,144.237,40.969z"/>
	<g>
		<path fill="#D0D8DC" d="M70.329,74.713c-0.256,0-0.512-0.098-0.707-0.293c-0.391-0.391-0.391-1.023,0-1.414l12.107-12.107
			c0.391-0.391,1.023-0.391,1.414,0s0.391,1.023,0,1.414L71.036,74.42C70.841,74.615,70.585,74.713,70.329,74.713z"/>
	</g>
	<g>
		<path fill="#D0D8DC" d="M64.488,80.553c-0.256,0-0.512-0.098-0.707-0.293c-0.391-0.391-0.391-1.023,0-1.414l1.417-1.416
			c0.391-0.391,1.023-0.391,1.414,0s0.391,1.023,0,1.414l-1.417,1.416C65,80.455,64.744,80.553,64.488,80.553z"/>
	</g>
	<g>
		<path fill="#D0D8DC" d="M88.688,71.572c-0.13,0-0.262-0.025-0.39-0.078c-0.509-0.215-0.746-0.803-0.531-1.311
			c1.532-3.627,4.565-6.379,8.32-7.547c0.53-0.168,1.088,0.131,1.252,0.658s-0.131,1.088-0.658,1.252
			c-3.191,0.992-5.769,3.332-7.072,6.414C89.447,71.344,89.077,71.572,88.688,71.572z"/>
	</g>
	<g>
		<path fill="#D0D8DC" d="M100.066,33.006c-0.005,0-0.01,0-0.016,0c-2.07,0-3.979-0.293-5.106-0.787
			c-0.506-0.221-0.737-0.811-0.516-1.316c0.221-0.504,0.811-0.736,1.316-0.516c0.686,0.299,2.176,0.619,4.307,0.619
			c0.005,0,0.01,0,0.014,0c0.651,0,1.285-0.031,1.885-0.094c0.557-0.066,1.041,0.342,1.099,0.893
			c0.057,0.549-0.343,1.039-0.892,1.098C101.489,32.971,100.786,33.006,100.066,33.006z"/>
	</g>
	<g>
		<path fill="#D0D8DC" d="M110.337,36.551c-0.553,0-1-0.449-1-1c0-1.576,1.282-2.859,2.857-2.859c0.553,0,1,0.447,1,1s-0.447,1-1,1
			c-0.473,0-0.857,0.385-0.857,0.859C111.337,36.102,110.89,36.551,110.337,36.551z"/>
	</g>
	<path d="M100.052,24.094c2.484,0,4.498,0.449,4.498,1l1,3c1.409,0,2.552,1.143,2.552,2.551c0,0.486-0.14,0.938-0.375,1.324h2.031
		c0.629-0.395,1.368-0.625,2.167-0.625c0.047,0,0.091,0.012,0.138,0.014c0.074-0.006,0.148-0.008,0.222-0.008
		c0.831,0,1.659,0.303,2.369,1.031c0.026,0.025,0.051,0.053,0.077,0.078c0.085,0.08,0.164,0.166,0.242,0.252
		c3.669,3.793,6.583,7.408,11.077,8.258c2.013,0.381,5.233,0.525,8.44,0.525c4.161,0,8.3-0.244,9.747-0.525
		c0.297-0.059,0.558-0.084,0.783-0.084c1.719,0,1.372,1.518-0.783,1.959c-2.031,0.416-14.173,2.793-20.914,2.793
		c-1.348,0-2.479-0.096-3.271-0.32c-3.879-1.1-8.185-3.945-10.617-6.578c-0.581-0.443-1.046-1.027-1.326-1.715
		c-0.002-0.004-0.005-0.006-0.007-0.01h-2.421c-0.08,0.768-0.131,1.602-0.131,2.537c0,0.277-0.301,0.537-0.812,0.758v9.242
		c0.449,0,0.812,0.363,0.812,0.812v8.934c6.676,2.287,11.482,8.602,11.482,16.053v11.895c1.343,0.691,2.102,1.475,2.102,2.307v2
		c0,0.666-0.5,1.301-1.387,1.885c0.053-0.035,0.11-0.07,0.164-0.104c-0.544,0.381-0.879,1.045-0.879,1.762v2.729
		c0,0.525-0.357,1.027-0.982,1.496v1.258c0,0.691-0.639,1.342-1.747,1.918v6.59c0.031,8.973,5.451,16.643,13.286,20.229
		c21.283,10.254,35.963,31.963,35.963,57.17c0,2.205-0.113,4.383-0.332,6.529l-8.168,160.373c0,12.52-24.624,22.666-55,22.666
		c-30.377,0-55-10.146-55-22.666l-8.168-160.373c-0.219-2.146-0.332-4.324-0.332-6.529c-0.001-25.182,14.682-46.887,35.93-57.154
		c7.831-3.582,13.282-11.264,13.318-20.232v-6.6c-1.109-0.578-1.748-1.229-1.748-1.92v-1.258c-0.624-0.469-0.98-0.971-0.98-1.496
		H83.07v-2.736c-0.003-0.711-0.334-1.371-0.873-1.75c0.053,0.033,0.109,0.066,0.161,0.1c-0.889-0.582-1.389-1.219-1.389-1.885v-2
		c0-0.832,0.758-1.615,2.101-2.307V75.35c0-2.719,0.655-5.279,1.792-7.559L74.635,78.02l-2.043,2.043l-2.267,2.266l-2.043,2.043
		c-0.123,0.123-0.302,0.182-0.522,0.182c-0.87,0-2.404-0.906-3.843-2.344c-1.803-1.805-2.771-3.758-2.163-4.365l4.31-4.311v0.002
		l1.512-1.512l14.233-14.234l0.018,0.018c3.261-3.27,7.75-5.307,12.728-5.34v-2.104c0-0.449,0.363-0.812,0.812-0.812v-9.242
		c-0.512-0.221-0.812-0.48-0.812-0.758c0-4.299-0.916-6.832-2.168-7.562c-0.242-0.391-0.384-0.85-0.384-1.344
		c0-1.408,1.143-2.551,2.552-2.551l1-3C95.554,24.543,97.567,24.094,100.052,24.094 M117.032,93.85
		c0.176-0.092,0.345-0.184,0.5-0.277c-0.154,0.094-0.325,0.186-0.5,0.275V93.85 M82.599,93.59c0.147,0.088,0.308,0.174,0.472,0.258
		l0,0C82.906,93.762,82.746,93.676,82.599,93.59c-0.009-0.006-0.019-0.012-0.027-0.018C82.58,93.578,82.59,93.584,82.599,93.59
		 M117.959,93.299c-0.016,0.012-0.031,0.021-0.048,0.033C117.927,93.32,117.943,93.311,117.959,93.299 M82.146,93.301
		c0.018,0.01,0.034,0.021,0.052,0.035C82.18,93.324,82.162,93.312,82.146,93.301 M100.052,21.094c-4.549,0-7.048,1.125-7.442,3.348
		l-0.39,1.168c-1.898,0.883-3.218,2.809-3.218,5.035c0,1.035,0.289,2.045,0.835,2.926l0.393,0.633l0.503,0.293
		c0.264,0.391,0.821,1.873,0.821,5.055c0,0.459,0.106,1.359,0.812,2.215v6.246c-0.376,0.48-0.64,1.051-0.753,1.674
		c-3.508,0.508-6.809,1.885-9.642,4.023l-0.146-0.145l-2.139,2.104L65.454,69.902l-1.512,1.51l-4.31,4.311
		c-1.987,1.986-1.158,5.285,2.162,8.607c0.971,0.969,3.492,3.223,5.965,3.223c1.021,0,1.961-0.377,2.645-1.061l2.042-2.041
		l2.267-2.268l2.043-2.043l3.314-3.314v8.787c-1.695,1.355-2.101,2.834-2.101,3.938v2c0,1.062,0.384,2.559,2.101,3.93v2.342
		c0.002,0.746,0.199,1.738,0.981,2.738v0.016c0,0.988,0.342,2.301,1.748,3.51v5.01c-0.03,7.543-4.462,14.254-11.566,17.504
		l-0.028,0.014l-0.029,0.014c-11.102,5.365-20.491,13.688-27.152,24.066c-6.852,10.674-10.473,23.051-10.472,35.789
		c0,2.246,0.114,4.52,0.34,6.758l8.161,160.227c0.046,7.318,6.422,13.963,17.965,18.719c10.742,4.428,24.959,6.865,40.034,6.865
		c15.074,0,29.292-2.438,40.034-6.865c11.543-4.756,17.919-11.4,17.966-18.719l8.16-160.227c0.226-2.238,0.34-4.512,0.34-6.758
		c0-12.754-3.622-25.139-10.476-35.812c-6.666-10.383-16.066-18.703-27.186-24.061l-0.026-0.014l-0.027-0.012
		c-7.089-3.242-11.508-9.953-11.534-17.51v-4.99c1.406-1.209,1.747-2.52,1.747-3.508v-0.014c0.786-1.004,0.982-1.996,0.982-2.74
		V95.48c1.718-1.371,2.102-2.869,2.102-3.93v-2c0-1.104-0.405-2.582-2.102-3.938V75.35c0-7.797-4.534-14.809-11.482-18.07v-6.916
		c0-0.887-0.304-1.703-0.812-2.352v-6.246c0.073-0.088,0.139-0.178,0.199-0.266c3.025,2.973,7.442,5.609,11.296,6.703
		c1.029,0.291,2.367,0.434,4.091,0.434c7.515,0,20.948-2.738,21.517-2.854c3.18-0.652,4.434-2.854,4.255-4.623
		c-0.16-1.578-1.503-3.275-4.074-3.275c-0.427,0-0.884,0.047-1.358,0.139c-1.008,0.197-4.756,0.471-9.172,0.471
		c-3.473,0-6.271-0.168-7.883-0.473c-2.992-0.566-5.264-2.963-8.141-5.996c-0.428-0.449-0.861-0.906-1.305-1.367
		c-0.105-0.113-0.212-0.227-0.323-0.334l-0.042-0.043c-1.232-1.262-2.794-1.932-4.513-1.932c-0.044,0-0.088,0-0.132,0.002
		c-0.069-0.006-0.146-0.008-0.228-0.008c-0.429,0-0.854,0.039-1.272,0.115c-0.54-1.256-1.531-2.275-2.769-2.85l-0.39-1.168
		C107.1,22.219,104.601,21.094,100.052,21.094L100.052,21.094z"/>
	<g>
		<path fill="#1B87C9" d="M127.589,129.312c-7.835-3.586-13.255-11.256-13.286-20.229v-6.59c-0.78,0.406-1.79,0.775-3,1.092v5.508
			c0.034,9.916,5.784,18.699,15.009,22.934c10.107,4.875,18.654,12.441,24.716,21.883c6.23,9.707,9.524,20.969,9.524,32.572
			c0,2.07-0.106,4.164-0.316,6.227l-0.008,0.074l-0.004,0.076l-8.168,160.373l-0.004,0.076v0.076c0,9.303-21.355,19.666-52,19.666
			s-52-10.363-52-19.666v-0.076l-0.004-0.076L39.88,192.859l-0.004-0.076l-0.008-0.074c-0.21-2.062-0.316-4.156-0.316-6.227
			c0-11.588,3.292-22.844,9.521-32.549c6.057-9.438,14.593-17.008,24.686-21.891c9.099-4.176,15.002-13.176,15.041-22.947v-5.51
			c-1.21-0.316-2.22-0.686-3-1.092v6.602c-0.036,8.969-5.487,16.65-13.318,20.232c-21.248,10.268-35.931,31.973-35.93,57.154
			c0,2.205,0.113,4.383,0.332,6.529l8.168,160.373c0,12.52,24.623,22.666,55,22.666c30.376,0,55-10.146,55-22.666l8.168-160.373
			c0.219-2.146,0.332-4.324,0.332-6.529C163.552,161.275,148.872,139.566,127.589,129.312z"/>
	</g>
</g>
</svg>
