<?xml version="1.0" encoding="utf-8"?>
<!-- Generator: Adobe Illustrator 15.1.0, SVG Export Plug-In . SVG Version: 6.00 Build 0)  -->
<!DOCTYPE svg PUBLIC "-//W3C//DTD SVG 1.1//EN" "http://www.w3.org/Graphics/SVG/1.1/DTD/svg11.dtd">
<svg version="1.1" id="Layer_1" xmlns="http://www.w3.org/2000/svg" xmlns:xlink="http://www.w3.org/1999/xlink" x="0px" y="0px"
	 width="200px" height="400px" viewBox="0 0 200 400" enable-background="new 0 0 200 400" xml:space="preserve">
<g>
	<circle fill="none" stroke="#1B87C9" stroke-width="3" stroke-miterlimit="10" cx="136.384" cy="224.146" r="7.834"/>
	<circle fill="none" stroke="#1B87C9" stroke-width="3" stroke-miterlimit="10" cx="146.884" cy="207.478" r="6.416"/>
	<circle fill="none" stroke="#1B87C9" stroke-width="3" stroke-miterlimit="10" cx="132.384" cy="244.145" r="6.416"/>
	<circle fill="none" stroke="#1B87C9" stroke-width="2" stroke-miterlimit="10" cx="132.384" cy="209.103" r="4.791"/>
	<circle fill="none" stroke="#1B87C9" stroke-miterlimit="10" cx="139.259" cy="198.479" r="2.541"/>
	<circle fill="none" stroke="#1B87C9" stroke-width="2" stroke-miterlimit="10" cx="144.259" cy="236.479" r="3.666"/>
	<circle fill="none" stroke="#1B87C9" stroke-width="3" stroke-miterlimit="10" cx="83.134" cy="329.896" r="7.834"/>
	<circle fill="none" stroke="#1B87C9" stroke-width="3" stroke-miterlimit="10" cx="89.301" cy="351.646" r="8.75"/>
	<circle fill="none" stroke="#1B87C9" stroke-width="3" stroke-miterlimit="10" cx="65.175" cy="349.896" r="8.875"/>
	<circle fill="none" stroke="#1B87C9" stroke-miterlimit="10" cx="83.134" cy="304.396" r="3.125"/>
	<circle fill="none" stroke="#1B87C9" stroke-width="2" stroke-miterlimit="10" cx="100.052" cy="311.438" r="3.917"/>
	<circle fill="none" stroke="#1B87C9" stroke-width="2" stroke-miterlimit="10" cx="70.133" cy="322.062" r="3.917"/>
	<path fill="#1B87C9" d="M123.227,162.122c-0.002,0-0.004-0.001-0.006-0.001c-2.585-0.285-4.03-2.65-6.649-2.663
		c-2.312-0.011-4.353,1.965-5.709,1.745c-0.027-0.005-0.053,0.001-0.079,0c-1.877-0.087-3.76-0.151-5.644-0.192
		c-0.104-0.031-0.216-0.053-0.34-0.06c-1.819-0.093-1.625-2.868-4.312-2.993c-2.999-0.14-3.83,1.915-5.018,1.875s-0.879-1-3.482-1
		s-3.938,2.428-6.184,2.556l-0.001,0.002c-6.266,0.386-12.388,1.026-18.089,1.911v-0.004c-4.352,0.473-3.227-2.152-7.039-1.777
		c-2.488,0.245-2.565,1.881-4,2.438c-0.859,0.334-1.292,0.042-2.375,0.375s-2.633,2.504-5.26,3.369l0.003,0.006
		c-8.263,2.915-13.505,6.74-13.505,11.425c0,4.844,5.6,8.771,14.355,11.722c0.157,0.074,0.318,0.135,0.488,0.164
		c0.019,0.004,0.034,0.008,0.053,0.011c0.878,0.287,1.783,0.565,2.72,0.834c1.696,0.825,2.247,1.861,3.98,2.306
		c2.103,0.539,3.818-0.41,6.915,0.186c0.032,0.006,0.061,0.006,0.092,0.012c2.801,0.503,5.726,0.941,8.739,1.317
		c0.012,0.002,0.021,0.007,0.032,0.009c2.385,0.281,2.137,0.891,3.824,0.891c0.705,0,1.393-0.139,2.688,0
		c0.84,0.09,2.056,0.682,2.875,0.73c2.084,0.125,4.623-0.371,6.451-0.274c0.008,0,0.015-0.002,0.021-0.001
		c3.748,0.182,7.527,0.275,11.279,0.275c8.43,0,16.997-0.467,25.022-1.375c0.013-0.001,0.026,0.002,0.039,0
		c1.717-0.187,4.404,0.359,5.624,0.207c2-0.25,2.444-1.142,3.929-1.549c0.016-0.005,0.028-0.006,0.044-0.011
		c0.68-0.115,1.357-0.233,2.022-0.356c1.485-0.102,2.238,0.244,3.067,0.041c1.693-0.414,1.069-0.876,2.443-1.187
		s3.264,0.153,4.557-0.251c2-0.625,2.934-1.908,4.5-2.312c0.813-0.209,2.194-0.669,3.062,0.25c1.578,1.671,4.5,0.25,5.062-2.125
		c0.095-0.398,0.143-1.188,0.158-2.163c3.16-2.148,4.981-4.6,4.981-7.35C164.564,170.263,145.812,164.461,123.227,162.122z
		 M157.693,181.07c0,1.069-0.867,1.938-1.938,1.938s-1.938-0.868-1.938-1.938c0-1.07,0.867-1.938,1.938-1.938
		S157.693,180,157.693,181.07z M156.238,176.747c0,0.92-0.745,1.665-1.665,1.665s-1.665-0.745-1.665-1.665
		c0-0.919,0.745-1.665,1.665-1.665S156.238,175.828,156.238,176.747z M116.571,160.139c1.277,0,2.312,1.035,2.312,2.312
		s-1.035,2.312-2.312,2.312s-2.312-1.035-2.312-2.312S115.294,160.139,116.571,160.139z M100.052,159.105
		c1.403,0,2.541,1.138,2.541,2.541s-1.138,2.541-2.541,2.541s-2.541-1.138-2.541-2.541S98.648,159.105,100.052,159.105z
		 M92.05,160.135c1.197,0,2.166,0.97,2.166,2.166s-0.969,2.167-2.166,2.167c-1.195,0-2.166-0.971-2.166-2.167
		S90.854,160.135,92.05,160.135z M61.051,162.451c1.655,0,2.999,1.344,2.999,3s-1.344,3-2.999,3c-1.656,0-3-1.344-3-3
		S59.395,162.451,61.051,162.451z M55.26,165.451c1.035,0,1.875,0.839,1.875,1.875c0,1.035-0.84,1.875-1.875,1.875
		s-1.875-0.84-1.875-1.875C53.385,166.29,54.225,165.451,55.26,165.451z M58.218,193.417c-1.565,0-2.833-1.269-2.833-2.833
		s1.268-2.833,2.833-2.833s2.833,1.269,2.833,2.833S59.783,193.417,58.218,193.417z M77.508,195.082
		c-0.92,0-1.665-0.746-1.665-1.665c0-0.92,0.745-1.665,1.665-1.665s1.665,0.745,1.665,1.665
		C79.173,194.336,78.428,195.082,77.508,195.082z M82.759,196.583c-1.403,0-2.541-1.138-2.541-2.541s1.138-2.541,2.541-2.541
		s2.541,1.138,2.541,2.541S84.162,196.583,82.759,196.583z M130.238,195.229c-1.185,0-2.146-0.961-2.146-2.146
		c0-1.186,0.961-2.146,2.146-2.146s2.146,0.96,2.146,2.146C132.384,194.269,131.423,195.229,130.238,195.229z M139.26,193.084
		c-0.967,0-1.75-0.783-1.75-1.75c0-0.966,0.783-1.749,1.75-1.749c0.966,0,1.749,0.783,1.749,1.749
		C141.009,192.301,140.226,193.084,139.26,193.084z M141.8,188.962c-1.562,0.371-1.5-0.504-2.938-0.191
		c-2.12,0.461-1.688,1.688-4.625,2.188c-1.429,0.243-1.75-1.188-4.5-0.812c-2.17,0.296-4.041,2.629-7.016,3.003
		c-6.754,0.738-14.337,1.165-22.67,1.165c-3.976,0-7.772-0.102-11.4-0.282c-2.688-0.18-2.653-2.707-4.914-3.386
		c-1.875-0.562-2.514,0.445-3.52,0.562c-1.006,0.118-2.082-0.469-2.668-0.438c-2.312,0.125-3.268,2.015-4.637,1.832
		c-0.001,0-0.002,0-0.004,0c-2.723-0.374-5.281-0.804-7.681-1.276c-2.115-0.425-3.496-4.011-6.304-4.618
		c-2.309-0.499-5.29,1.572-8.527,0.341c-5.761-2.448-8.859-5.239-8.859-7.916c0-2.688,3.121-5.491,8.926-7.946
		c2.72-0.909,4.503-1.041,5.503-1.291s0.751-0.64,2.084-0.694c1.333-0.056,2.166,0.472,3.916,0c1.433-0.387,3.141-1.856,4.721-2.538
		c6.013-1.108,12.994-1.94,20.844-2.374c1.467,0.332,2.882,1.137,4.019,1.162c1.992,0.046,3.426-1.17,4.364-1.46
		c0.17-0.003,0.336-0.009,0.507-0.011c0.808,0.152,1.767,1.046,3.629,1.04c2.218-0.007,3.223-1.011,4.684-1.019
		c2.089,0.041,4.127,0.108,6.112,0.201c1.768,0.126,3.258,1.134,5.142,1.276c1.746,0.131,3.605-0.513,5.502-0.496
		c16.312,1.664,27.894,5.151,33.414,9.021c-0.074,0.006-0.143,0.014-0.229,0.017c-1.562,0.062-2.194,1.261-3,2.438
		c-0.812,1.188-1.734,0.142-2.75,1.938c-0.812,1.438,0.562,1.812-0.625,2.75c-0.993,0.784-1.138,0.161-2.312,0.062
		c-1.5-0.125-2.938,1.438-2.625,2.875c0.421,1.936,0.591,2.045-0.375,3.125C141.8,188.537,142.32,188.838,141.8,188.962z
		 M152.908,179.668c0,0.966-0.783,1.749-1.749,1.749c-0.967,0-1.75-0.783-1.75-1.749c0-0.967,0.783-1.75,1.75-1.75
		C152.125,177.918,152.908,178.701,152.908,179.668z M147.589,183.735c0,0.919-0.745,1.665-1.665,1.665s-1.665-0.746-1.665-1.665
		c0-0.92,0.745-1.665,1.665-1.665S147.589,182.815,147.589,183.735z M145.384,192.126c-1.403,0-2.541-1.138-2.541-2.541
		s1.138-2.541,2.541-2.541s2.541,1.138,2.541,2.541S146.787,192.126,145.384,192.126z M151.508,188.962
		c-1.979,0-3.583-1.604-3.583-3.583s1.604-3.583,3.583-3.583s3.583,1.604,3.583,3.583S153.486,188.962,151.508,188.962z
		 M156.238,190.374c-0.92,0-1.665-0.746-1.665-1.665c0-0.92,0.745-1.665,1.665-1.665s1.665,0.745,1.665,1.665
		C157.903,189.628,157.158,190.374,156.238,190.374z"/>
	<line fill="none" stroke="#455B65" stroke-miterlimit="10" x1="108.108" y1="37.44" x2="105.681" y2="37.44"/>
	<line fill="none" stroke="#455B65" stroke-miterlimit="10" x1="107.718" y1="32.396" x2="109.758" y2="32.396"/>
	<line fill="none" stroke="#455B65" stroke-miterlimit="10" x1="70.325" y1="82.756" x2="74.635" y2="78.446"/>
	<line fill="none" stroke="#455B65" stroke-miterlimit="10" x1="68.106" y1="71.918" x2="63.797" y2="76.229"/>
	<path fill="none" stroke="#455B65" stroke-miterlimit="10" d="M68.228,78.326c-1.803-1.804-2.771-3.758-2.164-4.365l-4.31,4.311
		c-0.607,0.607,0.36,2.561,2.163,4.364c1.804,1.803,3.758,2.771,4.365,2.163l4.31-4.31C71.984,81.097,70.03,80.129,68.228,78.326z"
		/>
	<path fill="none" stroke="#455B65" stroke-miterlimit="10" d="M94.675,52.888c-5.026,0-9.561,2.049-12.849,5.346l-0.018-0.018
		L67.575,72.45c-0.607,0.607,0.36,2.561,2.164,4.364c1.803,1.803,3.756,2.771,4.363,2.163l10.759-10.759"/>
	<path fill="none" stroke="#455B65" stroke-miterlimit="10" d="M84.052,99.744v1.26c0,2.339,7.163,4.235,15.999,4.235
		c8.835,0,15.999-1.896,15.999-4.235v-1.259"/>
	<path fill="none" stroke="#455B65" stroke-miterlimit="10" d="M105.55,59.724V50.79c0-0.449-0.363-0.812-0.812-0.812
		c0,0.685-2.098,1.24-4.686,1.24s-4.686-0.556-4.686-1.24c-0.449,0-0.812,0.363-0.812,0.812v8.918"/>
	<path fill="none" stroke="#455B65" stroke-miterlimit="10" d="M104.55,25.521c0-0.552-2.014-1-4.498-1s-4.498,0.448-4.498,1l-1,3
		c0,0.804,2.461,1.456,5.498,1.456s5.498-0.652,5.498-1.456L104.55,25.521z"/>
	<path fill="none" stroke="#455B65" stroke-miterlimit="10" d="M117.032,87.671V75.777c0-9.379-7.603-16.981-16.98-16.981
		c-9.379,0-16.981,7.603-16.981,16.981V87.67"/>
	<path fill="none" stroke="#455B65" stroke-miterlimit="10" d="M83.07,95.521v2.729h0.001c0,2.483,7.602,4.495,16.98,4.495
		c9.378,0,16.98-2.012,16.98-4.495v-2.729"/>
	<path fill="none" stroke="#455B65" stroke-miterlimit="10" d="M83.071,89.978l-0.001-2.307c-1.343,0.691-2.101,1.476-2.101,2.307
		c0,2.79,8.543,5.052,19.082,5.052s19.082-2.262,19.082-5.052c0-0.831-0.759-1.615-2.102-2.307v2.307
		c0,2.482-7.603,4.495-16.98,4.495C90.673,94.473,83.071,92.461,83.071,89.978z"/>
	<path fill="none" stroke="#455B65" stroke-miterlimit="10" d="M117.032,95.521c0-0.736,0.354-1.419,0.927-1.794
		c-2.688,1.928-9.69,3.302-17.907,3.303c-8.213,0-15.216-1.375-17.906-3.302c0.572,0.375,0.926,1.057,0.926,1.793L83.07,98.25h0.001
		c0,2.483,7.602,4.495,16.98,4.495c9.378,0,16.98-2.012,16.98-4.495V95.521z"/>
	<path fill="none" stroke="#455B65" stroke-miterlimit="10" d="M119.134,91.978v-2c0,2.79-8.543,5.052-19.082,5.052
		S80.97,92.768,80.97,89.978v2c0,2.79,8.543,5.052,19.082,5.052S119.134,94.768,119.134,91.978z"/>
	<path fill="none" stroke="#455B65" stroke-miterlimit="10" d="M95.366,40.736v9.241c0,0.685,2.098,1.24,4.686,1.24
		s4.686-0.556,4.686-1.24v-9.241"/>
	<path fill="none" stroke="#455B65" stroke-miterlimit="10" d="M94.554,39.978c0-4.298-0.916-6.831-2.168-7.562
		c-0.242-0.39-0.384-0.85-0.384-1.343c0-1.409,1.143-2.551,2.552-2.551c0,0.804,2.461,1.456,5.498,1.456s5.498-0.652,5.498-1.456
		c1.409,0,2.552,1.142,2.552,2.551c0,0.493-0.142,0.953-0.384,1.343c-1.252,0.731-2.168,3.265-2.168,7.562
		c0,0.804-2.461,1.456-5.498,1.456S94.554,40.781,94.554,39.978z"/>
	<path fill="none" stroke="#455B65" stroke-miterlimit="10" d="M144.237,41.396c-2.562,0.5-13.562,0.875-18.188,0
		c-4.494-0.85-7.408-4.465-11.077-8.258c-0.078-0.086-0.157-0.171-0.242-0.251c-0.026-0.026-0.051-0.053-0.077-0.079
		c-0.773-0.792-1.687-1.081-2.591-1.023c-0.047-0.001-0.091-0.014-0.138-0.014c-2.071,0-3.77,1.531-4.064,3.521
		c-0.195,0.734-0.159,1.486,0.241,2.149c0.002,0.004,0.005,0.007,0.007,0.01c0.28,0.688,0.745,1.271,1.326,1.715
		c2.433,2.634,6.738,5.479,10.617,6.579c4.752,1.349,21.748-1.974,24.186-2.474S146.8,40.896,144.237,41.396z"/>
	<g>
		<path fill="#D0D8DC" d="M70.329,75.14c-0.256,0-0.512-0.098-0.707-0.293c-0.391-0.391-0.391-1.023,0-1.414l12.107-12.107
			c0.391-0.391,1.023-0.391,1.414,0s0.391,1.023,0,1.414L71.036,74.847C70.841,75.042,70.585,75.14,70.329,75.14z"/>
	</g>
	<g>
		<path fill="#D0D8DC" d="M64.488,80.98c-0.256,0-0.512-0.098-0.707-0.293c-0.391-0.391-0.391-1.023,0-1.414l1.417-1.417
			c0.391-0.391,1.023-0.391,1.414,0s0.391,1.023,0,1.414l-1.417,1.417C65,80.883,64.744,80.98,64.488,80.98z"/>
	</g>
	<g>
		<path fill="#D0D8DC" d="M88.688,72c-0.13,0-0.262-0.025-0.39-0.079c-0.509-0.215-0.746-0.802-0.531-1.311
			c1.532-3.627,4.565-6.378,8.32-7.546c0.53-0.168,1.088,0.131,1.252,0.657c0.164,0.527-0.131,1.088-0.658,1.252
			c-3.191,0.993-5.769,3.332-7.072,6.415C89.447,71.771,89.077,72,88.688,72z"/>
	</g>
	<g>
		<path fill="#D0D8DC" d="M100.066,33.434c-0.005,0-0.01,0-0.016,0c-2.07,0-3.979-0.294-5.106-0.787
			c-0.506-0.222-0.737-0.811-0.516-1.316c0.221-0.505,0.811-0.737,1.316-0.516c0.686,0.299,2.176,0.619,4.307,0.619
			c0.005,0,0.01,0,0.014,0c0.651,0,1.285-0.032,1.885-0.094c0.557-0.066,1.041,0.342,1.099,0.892
			c0.057,0.549-0.343,1.04-0.892,1.098C101.489,33.398,100.786,33.434,100.066,33.434z"/>
	</g>
	<g>
		<path fill="#D0D8DC" d="M110.337,36.978c-0.553,0-1-0.448-1-1c0-1.576,1.282-2.858,2.857-2.858c0.553,0,1,0.447,1,1
			c0,0.552-0.447,1-1,1c-0.473,0-0.857,0.385-0.857,0.858C111.337,36.529,110.89,36.978,110.337,36.978z"/>
	</g>
	<path d="M100.052,24.521c2.484,0,4.498,0.448,4.498,1l1,3c1.409,0,2.552,1.142,2.552,2.551c0,0.485-0.14,0.938-0.375,1.323h2.031
		c0.629-0.394,1.368-0.625,2.167-0.625c0.047,0,0.091,0.013,0.138,0.014c0.074-0.005,0.147-0.007,0.222-0.007
		c0.831,0,1.659,0.303,2.369,1.03c0.026,0.026,0.051,0.053,0.077,0.079c0.085,0.08,0.164,0.165,0.242,0.251
		c3.669,3.793,6.583,7.408,11.077,8.258c2.014,0.381,5.233,0.525,8.44,0.525c4.161,0,8.3-0.243,9.747-0.525
		c0.297-0.058,0.558-0.084,0.783-0.084c1.719,0,1.372,1.518-0.783,1.959c-2.031,0.417-14.174,2.794-20.914,2.794
		c-1.348,0-2.479-0.096-3.271-0.32c-3.879-1.101-8.185-3.945-10.617-6.579c-0.581-0.443-1.046-1.027-1.326-1.715
		c-0.002-0.003-0.005-0.006-0.007-0.01h-2.421c-0.08,0.768-0.131,1.603-0.131,2.537c0,0.278-0.301,0.537-0.812,0.759v9.241
		c0.449,0,0.812,0.363,0.812,0.812v8.934c6.676,2.287,11.482,8.602,11.482,16.054v11.894c1.343,0.691,2.102,1.476,2.102,2.307v2
		c0,0.667-0.5,1.302-1.387,1.885c0.053-0.035,0.11-0.069,0.164-0.104c-0.544,0.381-0.879,1.046-0.879,1.762v2.729
		c0,0.525-0.357,1.027-0.982,1.495v1.259c0,0.691-0.639,1.342-1.747,1.918v6.589c0.031,8.974,5.451,16.644,13.286,20.229
		c21.283,10.255,35.963,31.964,35.963,57.171c0,2.204-0.113,4.383-0.332,6.529l-8.168,160.373c0,12.519-24.624,22.666-55,22.666
		c-30.377,0-55-10.147-55-22.666l-8.168-160.373c-0.219-2.146-0.332-4.325-0.332-6.529c-0.001-25.182,14.682-46.887,35.93-57.155
		c7.831-3.582,13.282-11.264,13.318-20.231v-6.601c-1.109-0.577-1.748-1.228-1.748-1.919v-1.259c-0.624-0.469-0.98-0.97-0.98-1.495
		H83.07v-2.737c-0.003-0.711-0.333-1.37-0.873-1.75c0.053,0.033,0.109,0.067,0.161,0.101c-0.889-0.583-1.389-1.219-1.389-1.886v-2
		c0-0.831,0.758-1.615,2.101-2.307V75.777c0-2.72,0.655-5.28,1.792-7.559L74.635,78.446l-2.043,2.043l-2.267,2.267l-2.043,2.043
		c-0.123,0.123-0.301,0.182-0.522,0.182c-0.87,0-2.404-0.907-3.843-2.345c-1.803-1.804-2.771-3.757-2.163-4.364l4.31-4.311v0.001
		l1.512-1.512l14.233-14.234l0.018,0.018c3.261-3.27,7.75-5.307,12.728-5.34V50.79c0-0.449,0.363-0.812,0.812-0.812v-9.241
		c-0.512-0.222-0.812-0.48-0.812-0.759c0-4.298-0.916-6.831-2.168-7.562c-0.242-0.39-0.384-0.85-0.384-1.343
		c0-1.409,1.143-2.551,2.552-2.551l1-3C95.554,24.97,97.567,24.521,100.052,24.521 M117.032,94.276
		c0.176-0.091,0.345-0.183,0.5-0.276c-0.154,0.093-0.325,0.185-0.5,0.274V94.276 M82.599,94.017
		c0.147,0.088,0.307,0.174,0.472,0.259v-0.001C82.906,94.189,82.746,94.104,82.599,94.017C82.59,94.011,82.58,94.006,82.571,94
		C82.58,94.006,82.59,94.011,82.599,94.017 M117.959,93.727c-0.016,0.011-0.031,0.021-0.048,0.032
		C117.927,93.748,117.942,93.737,117.959,93.727 M82.146,93.728c0.018,0.011,0.034,0.022,0.052,0.035
		C82.18,93.751,82.162,93.739,82.146,93.728 M100.052,21.521c-4.549,0-7.048,1.125-7.442,3.347l-0.39,1.168
		c-1.898,0.883-3.218,2.809-3.218,5.036c0,1.034,0.289,2.045,0.835,2.925l0.393,0.634l0.503,0.293
		c0.265,0.391,0.821,1.872,0.821,5.054c0,0.46,0.105,1.359,0.812,2.215v6.247c-0.376,0.479-0.641,1.05-0.752,1.674
		c-3.51,0.507-6.81,1.885-9.643,4.023l-0.146-0.146l-2.139,2.104L65.454,70.329l-1.512,1.511l-4.31,4.311
		c-1.987,1.986-1.158,5.284,2.162,8.606c0.971,0.97,3.492,3.224,5.965,3.224c1.021,0,1.961-0.377,2.645-1.061l2.042-2.042
		l2.268-2.268l2.042-2.043l3.314-3.314v8.787c-1.695,1.355-2.101,2.835-2.101,3.938v2c0,1.062,0.383,2.56,2.101,3.93v2.343
		c0.001,0.745,0.199,1.737,0.981,2.738v0.016c0,0.988,0.342,2.3,1.748,3.509v5.011c-0.03,7.542-4.462,14.254-11.566,17.504
		l-0.028,0.013l-0.029,0.014c-11.102,5.365-20.491,13.688-27.152,24.066c-6.852,10.675-10.472,23.051-10.472,35.79
		c0,2.246,0.114,4.52,0.34,6.758l8.16,160.226c0.047,7.318,6.423,13.963,17.966,18.72c10.741,4.427,24.96,6.865,40.034,6.865
		s29.292-2.438,40.034-6.865c11.543-4.757,17.919-11.401,17.966-18.72l8.16-160.226c0.226-2.239,0.34-4.512,0.34-6.758
		c0-12.755-3.622-25.139-10.476-35.813c-6.666-10.383-16.066-18.703-27.186-24.061l-0.026-0.013l-0.027-0.013
		c-7.088-3.242-11.508-9.952-11.534-17.51v-4.989c1.405-1.209,1.747-2.52,1.747-3.508v-0.014c0.785-1.004,0.982-1.997,0.982-2.74
		v-2.342c1.718-1.372,2.102-2.869,2.102-3.931v-2c0-1.103-0.405-2.581-2.102-3.937V75.777c0-7.797-4.534-14.809-11.482-18.071V50.79
		c0-0.886-0.304-1.702-0.812-2.351v-6.247c0.072-0.088,0.139-0.177,0.199-0.265c3.025,2.972,7.442,5.609,11.296,6.703
		c1.028,0.291,2.367,0.434,4.091,0.434c7.515,0,20.949-2.738,21.517-2.854c3.18-0.652,4.435-2.854,4.255-4.623
		c-0.16-1.577-1.503-3.275-4.074-3.275c-0.427,0-0.883,0.047-1.357,0.14c-1.009,0.197-4.758,0.47-9.173,0.47
		c-3.473,0-6.271-0.168-7.883-0.473c-2.992-0.566-5.265-2.962-8.141-5.995c-0.427-0.45-0.86-0.907-1.306-1.367
		c-0.104-0.114-0.211-0.227-0.322-0.334l-0.042-0.044c-1.232-1.262-2.794-1.931-4.513-1.931c-0.044,0-0.088,0-0.132,0.001
		c-0.069-0.005-0.146-0.008-0.228-0.008c-0.429,0-0.854,0.039-1.271,0.116c-0.541-1.257-1.532-2.275-2.77-2.851l-0.39-1.168
		C107.1,22.646,104.601,21.521,100.052,21.521L100.052,21.521z"/>
	<g>
		<path d="M122.838,217.118l1.356,17.335l-2.509,0.256c-0.239-2.544-1.451-5.437-3.636-8.68c-1.417-2.1-3.641-3.854-6.67-5.262
			c-3.03-1.408-6.67-2.112-10.921-2.112c-7.681,0-11.521,2.688-11.521,8.064c0,3.073,0.947,5.335,2.842,6.785
			c1.725,1.314,4.012,2.706,6.862,4.174l18.435,8.604c7.699,4.096,11.557,9.422,11.573,15.977c0,13.365-9.832,20.048-29.496,20.048
			c-2.97,0-5.829-0.409-8.577-1.229c-3.261-0.989-6.247-2.32-8.962-3.994c-1.178-0.733-2.193-1.101-3.047-1.101
			c-1.929,0-3.063,1.817-3.405,5.454l-2.458-0.256l2.074-18.436l2.509,0.256c0.837,5.957,4.481,10.729,10.934,14.312
			c2.987,1.656,6.631,2.484,10.933,2.484c8.348,0,12.521-2.859,12.521-8.578c0-4.42-2.458-7.902-7.374-10.446l-17.334-7.86
			c-4.302-1.945-7.545-4.361-9.729-7.246c-2.1-2.766-3.158-5.966-3.175-9.602c0-6.366,2.518-11.282,7.553-14.748
			c5.019-3.448,11.301-5.172,18.845-5.172c4.012,0,7.4,0.529,10.165,1.588c2.731,1.041,5.036,1.562,6.913,1.562
			c1.81,0,2.825-0.64,3.047-1.92L122.838,217.118z"/>
	</g>
	<g>
		<path fill="#1B87C9" d="M127.589,129.739c-7.835-3.585-13.255-11.255-13.286-20.229v-6.589c-0.78,0.405-1.79,0.774-3,1.092v5.508
			c0.034,9.915,5.784,18.699,15.009,22.933c10.107,4.875,18.654,12.442,24.716,21.884c6.23,9.706,9.524,20.969,9.524,32.572
			c0,2.069-0.106,4.164-0.316,6.226l-0.008,0.075l-0.004,0.076l-8.168,160.373l-0.004,0.076v0.076c0,9.302-21.355,19.666-52,19.666
			s-52-10.364-52-19.666v-0.076l-0.004-0.076L39.88,193.287l-0.004-0.076l-0.008-0.075c-0.21-2.062-0.316-4.156-0.316-6.226
			c0-11.588,3.292-22.844,9.521-32.55c6.057-9.438,14.593-17.007,24.686-21.891c9.099-4.176,15.002-13.175,15.041-22.946v-5.51
			c-1.21-0.317-2.22-0.686-3-1.092v6.602c-0.036,8.968-5.487,16.649-13.318,20.231c-21.248,10.269-35.931,31.974-35.93,57.155
			c0,2.204,0.113,4.383,0.332,6.529l8.168,160.373c0,12.519,24.623,22.666,55,22.666c30.376,0,55-10.147,55-22.666l8.168-160.373
			c0.219-2.146,0.332-4.325,0.332-6.529C163.552,161.703,148.872,139.994,127.589,129.739z"/>
	</g>
</g>
</svg>
