<?xml version="1.0" encoding="utf-8"?>
<!-- Generator: Adobe Illustrator 15.1.0, SVG Export Plug-In . SVG Version: 6.00 Build 0)  -->
<!DOCTYPE svg PUBLIC "-//W3C//DTD SVG 1.1//EN" "http://www.w3.org/Graphics/SVG/1.1/DTD/svg11.dtd">
<svg version="1.1" id="Layer_1" xmlns="http://www.w3.org/2000/svg" xmlns:xlink="http://www.w3.org/1999/xlink" x="0px" y="0px"
	 width="200px" height="400px" viewBox="0 0 200 400" enable-background="new 0 0 200 400" xml:space="preserve">
<g>
	<path fill="#58C1EF" d="M164.125,186.598c0-25.207-14.68-46.916-35.963-57.171c-7.835-3.585-13.255-11.255-13.286-20.229v-22.03
		H86.373v22.043c-0.036,8.968-5.487,16.649-13.318,20.231c-21.248,10.269-35.931,31.974-35.93,57.155
		c0,2.204,0.113,4.383,0.332,6.529L45.625,353.5c0,12.519,24.623,22.666,55,22.666c30.376,0,55-10.147,55-22.666l8.168-160.373
		C164.012,190.98,164.125,188.802,164.125,186.598z"/>
	<path fill="#B5E4FA" d="M36.979,179.132c0-9.213,28.22-16.681,63.021-16.681c34.802,0,63.021,7.468,63.021,16.681
		c-2.667-21.84-16.424-40.21-35.483-49.393c-7.835-3.585-13.255-11.255-13.286-20.229V87.48H85.748v22.043
		c-0.036,8.968-5.487,16.649-13.318,20.231C53.404,138.949,39.65,157.313,36.979,179.132z"/>
	<path fill="#E2F4FD" d="M50.33,187.044c3.243,1.244,6.23-0.836,8.543-0.336c2.82,0.61,4.2,4.227,6.331,4.626
		s1.892,3.616-1.206,3.021c-3.097-0.596-4.812,0.354-6.915-0.186c-2.435-0.624-2.522-2.417-6.753-3.15
		C48.035,190.621,46.829,185.71,50.33,187.044"/>
	<path fill="#E2F4FD" d="M72.861,192.603c1.369,0.183,2.324-1.707,4.637-1.832c0.586-0.031,1.662,0.556,2.668,0.438
		c1.006-0.117,1.645-1.125,3.52-0.562c2.29,0.688,2.219,3.276,5.014,3.396c2.794,0.119,1.828,3.093,0,2.997
		c-1.828-0.097-4.367,0.399-6.451,0.274c-0.819-0.049-2.035-0.641-2.875-0.73c-1.295-0.139-1.982,0-2.688,0
		c-1.688,0-1.439-0.609-3.824-0.891C71.514,195.533,71.247,192.389,72.861,192.603"/>
	<path fill="#E2F4FD" d="M122.624,193.158c3.003-0.355,4.88-2.715,7.062-3.013c2.75-0.375,3.071,1.056,4.5,0.812
		c2.938-0.5,2.505-1.727,4.625-2.188c1.438-0.312,1.375,0.562,2.938,0.191c0.521-0.124,0-0.425,1.188-1.754
		c0.966-1.08,0.796-1.189,0.375-3.125c-0.312-1.438,1.125-3,2.625-2.875c1.175,0.099,1.319,0.722,2.312-0.062
		c1.188-0.938-0.188-1.312,0.625-2.75c1.016-1.796,1.938-0.75,2.75-1.938c0.806-1.177,1.438-2.375,3-2.438
		c2.318-0.093,0.5-1.25,2.125,0.125s2.125,2.795,2.375,3.772s0.637,9.096,0.25,10.728c-0.562,2.375-3.484,3.796-5.062,2.125
		c-0.868-0.919-2.249-0.459-3.062-0.25c-1.566,0.404-2.5,1.688-4.5,2.312c-1.293,0.404-3.183-0.06-4.557,0.251
		s-0.75,0.772-2.443,1.187c-1.146,0.281-2.125-0.5-5.134,0.326c-1.484,0.407-1.929,1.299-3.929,1.549
		c-1.22,0.152-3.907-0.394-5.624-0.207C123.345,196.126,120.498,193.403,122.624,193.158"/>
	<path fill="#E2F4FD" d="M50.409,171.188l-1.421-3.485c2.627-0.865,4.177-3.036,5.26-3.369s1.516-0.041,2.375-0.375
		c1.435-0.557,1.512-2.192,4-2.438c3.812-0.375,2.688,2.25,7.039,1.777v3.038c-1.834,0.284-3.997,2.394-5.747,2.865
		s-2.583-0.056-3.916,0c-1.333,0.055-1.084,0.444-2.084,0.694S53.131,170.277,50.409,171.188"/>
	<path fill="#E2F4FD" d="M110.811,161.203c1.356,0.22,3.396-1.756,5.709-1.745c2.619,0.013,4.064,2.378,6.649,2.663
		c2.585,0.284,1.005,3.086-1.107,2.887c-2.112-0.2-4.188,0.617-6.126,0.472c-1.938-0.146-3.456-1.217-5.291-1.292
		S109.623,161.01,110.811,161.203z"/>
	<path fill="#E2F4FD" d="M85.752,161.389c2.246-0.128,3.58-2.556,6.184-2.556s2.295,0.96,3.482,1s2.019-2.015,5.018-1.875
		c2.688,0.125,2.493,2.9,4.312,2.993s1.498,3.071,0,3.047c-1.498-0.025-2.498,1.016-4.75,1.022s-3.188-1.318-4.125-1.034
		s-2.375,1.511-4.375,1.465c-1.581-0.036-3.697-1.591-5.746-1.264C83.703,164.516,85.752,161.389,85.752,161.389z"/>
	<ellipse fill="none" stroke="#E2F4FD" stroke-width="3" stroke-miterlimit="10" cx="100" cy="179.133" rx="63.013" ry="16.681"/>
	<g>
		<path fill="#E2F4FD" d="M100,197.313c-31.275,0-64.514-6.372-64.514-18.181c0-11.81,33.238-18.182,64.514-18.182
			c31.274,0,64.513,6.372,64.513,18.182C164.513,190.941,131.274,197.313,100,197.313z M100,163.951
			c-36.251,0-58.514,8.001-58.514,15.182S63.749,194.313,100,194.313c36.25,0,58.513-8,58.513-15.181S136.25,163.951,100,163.951z"
			/>
	</g>
	<circle fill="#B5E4FA" cx="136.332" cy="224.146" r="7.834"/>
	<circle fill="#B5E4FA" cx="146.832" cy="207.478" r="6.416"/>
	<circle fill="#B5E4FA" cx="132.332" cy="244.145" r="6.416"/>
	<circle fill="#B5E4FA" cx="132.332" cy="209.103" r="4.791"/>
	<circle fill="#B5E4FA" cx="139.207" cy="198.479" r="2.541"/>
	<circle fill="#B5E4FA" cx="144.207" cy="236.479" r="3.666"/>
	<circle fill="#B5E4FA" cx="83.082" cy="329.896" r="7.834"/>
	<circle fill="#B5E4FA" cx="89.249" cy="351.646" r="8.75"/>
	<circle fill="#B5E4FA" cx="65.123" cy="349.896" r="8.875"/>
	<circle fill="#B5E4FA" cx="83.082" cy="304.396" r="3.125"/>
	<circle fill="#B5E4FA" cx="100" cy="311.438" r="3.917"/>
	<circle fill="#B5E4FA" cx="70.081" cy="322.062" r="3.917"/>
	<circle fill="#B5E4FA" cx="82.707" cy="194.042" r="2.541"/>
	<circle fill="#B5E4FA" cx="145.332" cy="189.585" r="2.541"/>
	<circle fill="#B5E4FA" cx="139.208" cy="191.334" r="1.75"/>
	<circle fill="#B5E4FA" cx="130.187" cy="193.084" r="2.146"/>
	<circle fill="#B5E4FA" cx="100" cy="161.646" r="2.541"/>
	<circle fill="#B5E4FA" cx="91.998" cy="162.301" r="2.166"/>
	<circle fill="#B5E4FA" cx="116.52" cy="162.451" r="2.312"/>
	<circle fill="#B5E4FA" cx="60.999" cy="165.451" r="3"/>
	<circle fill="#B5E4FA" cx="55.208" cy="167.326" r="1.875"/>
	<circle fill="#B5E4FA" cx="151.456" cy="185.379" r="3.583"/>
	<circle fill="#B5E4FA" cx="155.704" cy="181.07" r="1.938"/>
	<circle fill="#B5E4FA" cx="77.456" cy="193.417" r="1.665"/>
	<circle fill="#B5E4FA" cx="156.187" cy="188.709" r="1.665"/>
	<circle fill="#B5E4FA" cx="145.872" cy="183.735" r="1.665"/>
	<circle fill="#B5E4FA" cx="58.166" cy="190.584" r="2.833"/>
	<circle fill="#B5E4FA" cx="154.521" cy="176.747" r="1.665"/>
	<circle fill="#B5E4FA" cx="151.107" cy="179.668" r="1.75"/>
	<path fill="#1B87C9" d="M111.251,90.48v19.041c0.034,9.915,5.784,18.699,15.009,22.933c10.107,4.875,18.654,12.442,24.716,21.884
		c6.23,9.706,9.524,20.969,9.524,32.572c0,2.069-0.106,4.164-0.316,6.226l-0.008,0.075l-0.004,0.076l-8.168,160.373L152,353.736
		v0.076c0,9.302-21.355,19.666-52,19.666s-52-10.364-52-19.666v-0.076l-0.004-0.076l-8.168-160.373l-0.004-0.076l-0.008-0.076
		c-0.211-2.06-0.316-4.154-0.316-6.225c0-11.588,3.292-22.844,9.521-32.55c6.057-9.438,14.593-17.007,24.686-21.891
		c9.098-4.176,15.002-13.175,15.041-22.946V90.48H111.251 M114.251,87.48H85.748v22.043c-0.036,8.968-5.487,16.649-13.318,20.231
		c-21.248,10.269-35.931,31.974-35.93,57.155c0,2.204,0.113,4.383,0.332,6.529L45,353.812c0,12.519,24.623,22.666,55,22.666
		c30.376,0,55-10.147,55-22.666l8.168-160.373c0.219-2.146,0.332-4.325,0.332-6.529c0-25.207-14.68-46.916-35.963-57.171
		c-7.835-3.585-13.255-11.255-13.286-20.229V87.48L114.251,87.48z"/>
	<rect x="104.686" y="32.396" fill="#546E7A" stroke="#455B65" stroke-miterlimit="10" width="7.062" height="5.045"/>
	
		<rect x="64.548" y="74.29" transform="matrix(0.7071 0.7071 -0.7071 0.7071 74.9435 -26.2548)" fill="#546E7A" stroke="#455B65" stroke-miterlimit="10" width="9.232" height="6.095"/>
	<path fill="#90A4AE" stroke="#455B65" stroke-miterlimit="10" d="M68.176,78.326c-1.803-1.804-2.771-3.758-2.164-4.365l-4.31,4.311
		c-0.607,0.607,0.36,2.561,2.163,4.364c1.804,1.803,3.758,2.771,4.365,2.163l4.31-4.31C71.933,81.097,69.979,80.129,68.176,78.326z"
		/>
	<path fill="#90A4AE" stroke="#455B65" stroke-miterlimit="10" d="M94.623,52.888c-5.026,0-9.561,2.049-12.849,5.346l-0.018-0.018
		L67.523,72.45c-0.607,0.607,0.36,2.561,2.164,4.364c1.803,1.803,3.756,2.771,4.363,2.163l14.233-14.233l-0.099-0.099h6.438V52.888z
		"/>
	<path fill="#546E7A" stroke="#455B65" stroke-miterlimit="10" d="M84,98.395v2.609c0,2.339,7.163,4.235,15.999,4.235
		c8.835,0,15.999-1.896,15.999-4.235v-2.609H84z"/>
	<path fill="#90A4AE" stroke="#455B65" stroke-miterlimit="10" d="M104.686,49.978c0,0.685-2.098,1.24-4.686,1.24
		s-4.686-0.556-4.686-1.24c-0.449,0-0.812,0.363-0.812,0.812v10.043h10.996V50.79C105.498,50.341,105.135,49.978,104.686,49.978z"/>
	<path fill="#90A4AE" stroke="#455B65" stroke-miterlimit="10" d="M104.498,25.521c0-0.552-2.014-1-4.498-1s-4.498,0.448-4.498,1
		l-1,3c0,0.804,2.461,1.456,5.498,1.456s5.498-0.652,5.498-1.456L104.498,25.521z"/>
	<path fill="#90A4AE" stroke="#455B65" stroke-miterlimit="10" d="M100,58.796c-9.379,0-16.981,7.603-16.981,16.981V98.25h0.001
		c0,2.483,7.602,4.495,16.98,4.495c9.378,0,16.98-2.012,16.98-4.495V75.777C116.98,66.398,109.378,58.796,100,58.796z"/>
	<path fill="#D0D8DC" stroke="#455B65" stroke-miterlimit="10" d="M83.02,89.978l-0.001-2.307c-1.343,0.691-2.101,1.476-2.101,2.307
		c0,2.79,8.543,5.052,19.082,5.052s19.082-2.262,19.082-5.052c0-0.831-0.759-1.615-2.102-2.307v2.307
		c0,2.482-7.603,4.495-16.98,4.495C90.621,94.473,83.02,92.461,83.02,89.978z"/>
	<path fill="#90A4AE" stroke="#455B65" stroke-miterlimit="10" d="M116.98,95.521c0-0.736,0.354-1.419,0.927-1.794
		c-2.688,1.928-9.69,3.302-17.907,3.303c-8.213,0-15.216-1.375-17.906-3.302c0.572,0.375,0.926,1.057,0.926,1.793l-0.001,2.729
		h0.001c0,2.483,7.602,4.495,16.98,4.495c9.378,0,16.98-2.012,16.98-4.495V95.521z"/>
	<path fill="#90A4AE" stroke="#455B65" stroke-miterlimit="10" d="M119.082,91.978v-2c0,2.79-8.543,5.052-19.082,5.052
		s-19.082-2.262-19.082-5.052v2c0,2.79,8.543,5.052,19.082,5.052S119.082,94.768,119.082,91.978z"/>
	<path fill="#546E7A" stroke="#455B65" stroke-miterlimit="10" d="M95.314,40.271v9.707c0,0.685,2.098,1.24,4.686,1.24
		s4.686-0.556,4.686-1.24v-9.707H95.314z"/>
	<path fill="#90A4AE" stroke="#455B65" stroke-miterlimit="10" d="M94.502,39.978c0-4.298-0.916-6.831-2.168-7.562
		c-0.242-0.39-0.384-0.85-0.384-1.343c0-1.409,1.143-2.551,2.552-2.551c0,0.804,2.461,1.456,5.498,1.456s5.498-0.652,5.498-1.456
		c1.409,0,2.552,1.142,2.552,2.551c0,0.493-0.142,0.953-0.384,1.343c-1.252,0.731-2.168,3.265-2.168,7.562
		c0,0.804-2.461,1.456-5.498,1.456S94.502,40.781,94.502,39.978z"/>
	<path fill="#90A4AE" stroke="#455B65" stroke-miterlimit="10" d="M144.186,41.396c-2.562,0.5-13.562,0.875-18.188,0
		c-4.494-0.85-7.408-4.465-11.077-8.258c-0.078-0.086-0.157-0.171-0.242-0.251c-0.026-0.026-0.051-0.053-0.077-0.079
		c-0.773-0.792-1.687-1.081-2.591-1.023c-0.047-0.001-0.091-0.014-0.138-0.014c-2.071,0-3.77,1.531-4.064,3.521
		c-0.195,0.734-0.159,1.486,0.241,2.149c0.002,0.004,0.005,0.007,0.007,0.01c0.28,0.688,0.745,1.271,1.326,1.715
		c2.433,2.634,6.738,5.479,10.617,6.579c4.752,1.349,21.748-1.974,24.186-2.474S146.748,40.896,144.186,41.396z"/>
	
		<line fill="none" stroke="#D0D8DC" stroke-width="2" stroke-linecap="round" stroke-miterlimit="10" x1="70.277" y1="74.14" x2="82.385" y2="62.032"/>
	
		<line fill="none" stroke="#D0D8DC" stroke-width="2" stroke-linecap="round" stroke-miterlimit="10" x1="64.437" y1="79.98" x2="65.854" y2="78.563"/>
	<path fill="none" stroke="#D0D8DC" stroke-width="2" stroke-linecap="round" stroke-miterlimit="10" d="M88.636,71
		c1.403-3.321,4.22-5.899,7.696-6.981"/>
	<path fill="none" stroke="#D0D8DC" stroke-width="2" stroke-linecap="round" stroke-miterlimit="10" d="M102.002,32.334
		c-0.621,0.064-1.296,0.1-2.002,0.1c-1.996,0-3.743-0.282-4.707-0.703"/>
	<path fill="none" stroke="#D0D8DC" stroke-width="2" stroke-linecap="round" stroke-miterlimit="10" d="M110.285,35.978
		c0-1.026,0.832-1.858,1.857-1.858"/>
	<path d="M100,24.521c2.484,0,4.498,0.448,4.498,1l1,3c1.409,0,2.552,1.142,2.552,2.551c0,0.485-0.14,0.938-0.375,1.323h2.031
		c0.629-0.394,1.368-0.625,2.167-0.625c0.047,0,0.091,0.013,0.138,0.014c0.074-0.005,0.147-0.007,0.222-0.007
		c0.831,0,1.659,0.303,2.369,1.03c0.026,0.026,0.051,0.053,0.077,0.079c0.085,0.08,0.164,0.165,0.242,0.251
		c3.669,3.793,6.583,7.408,11.077,8.258c2.014,0.381,5.233,0.525,8.44,0.525c4.161,0,8.3-0.243,9.747-0.525
		c0.297-0.058,0.558-0.084,0.783-0.084c1.719,0,1.372,1.518-0.783,1.959c-2.031,0.417-14.174,2.794-20.914,2.794
		c-1.348,0-2.479-0.096-3.271-0.32c-3.879-1.101-8.185-3.945-10.617-6.579c-0.581-0.443-1.046-1.027-1.326-1.715
		c-0.002-0.003-0.005-0.006-0.007-0.01h-2.421c-0.08,0.768-0.131,1.603-0.131,2.537c0,0.278-0.301,0.537-0.812,0.759v9.241
		c0.449,0,0.812,0.363,0.812,0.812v8.934c6.676,2.287,11.482,8.602,11.482,16.054v11.894c1.343,0.691,2.102,1.476,2.102,2.307v2
		c0,0.667-0.5,1.302-1.387,1.885c0.053-0.035,0.11-0.069,0.164-0.104c-0.544,0.381-0.879,1.046-0.879,1.762v2.729
		c0,0.525-0.357,1.027-0.982,1.495v1.259c0,0.691-0.639,1.342-1.747,1.918v6.589c0.031,8.974,5.451,16.644,13.286,20.229
		c21.283,10.255,35.963,31.964,35.963,57.171c0,2.204-0.113,4.383-0.332,6.529L155,353.812c0,12.519-24.624,22.666-55,22.666
		c-30.377,0-55-10.147-55-22.666l-8.168-160.373c-0.219-2.146-0.332-4.325-0.332-6.529c-0.001-25.182,14.682-46.887,35.93-57.155
		c7.831-3.582,13.282-11.264,13.318-20.231v-6.601c-1.109-0.577-1.748-1.228-1.748-1.919v-1.259c-0.624-0.469-0.98-0.97-0.98-1.495
		h-0.001v-2.737c-0.003-0.711-0.333-1.37-0.873-1.75c0.052,0.033,0.109,0.067,0.161,0.101c-0.889-0.583-1.389-1.219-1.389-1.886v-2
		c0-0.831,0.758-1.615,2.101-2.307V75.777c0-2.72,0.655-5.28,1.792-7.559L74.583,78.446l-2.043,2.043l-2.267,2.267l-2.043,2.043
		c-0.123,0.123-0.302,0.182-0.522,0.182c-0.87,0-2.404-0.907-3.843-2.345c-1.803-1.804-2.771-3.757-2.163-4.364l4.31-4.311v0.001
		l1.512-1.512l14.233-14.234l0.018,0.018c3.261-3.27,7.75-5.307,12.728-5.34V50.79c0-0.449,0.363-0.812,0.812-0.812v-9.241
		c-0.512-0.222-0.812-0.48-0.812-0.759c0-4.298-0.916-6.831-2.168-7.562c-0.242-0.39-0.384-0.85-0.384-1.343
		c0-1.409,1.143-2.551,2.552-2.551l1-3C95.502,24.97,97.516,24.521,100,24.521 M116.98,94.276c0.176-0.091,0.345-0.183,0.5-0.276
		c-0.154,0.093-0.325,0.185-0.5,0.274V94.276 M82.54,94.013c0.149,0.089,0.311,0.177,0.479,0.263v-0.001
		C82.852,94.188,82.688,94.101,82.54,94.013c-0.007-0.005-0.013-0.009-0.021-0.013C82.527,94.004,82.533,94.008,82.54,94.013
		 M117.907,93.727c-0.016,0.011-0.031,0.021-0.048,0.032C117.875,93.748,117.891,93.737,117.907,93.727 M82.094,93.728
		c0.018,0.011,0.035,0.022,0.052,0.035C82.127,93.751,82.11,93.739,82.094,93.728 M100,21.521c-4.549,0-7.048,1.125-7.442,3.347
		l-0.39,1.168c-1.898,0.883-3.218,2.809-3.218,5.036c0,1.034,0.288,2.045,0.835,2.925l0.393,0.634l0.503,0.293
		c0.265,0.391,0.821,1.872,0.821,5.054c0,0.46,0.105,1.359,0.812,2.215v6.247c-0.376,0.479-0.641,1.051-0.752,1.674
		c-3.509,0.507-6.809,1.885-9.643,4.023l-0.146-0.146l-2.139,2.104L65.402,70.329l-1.512,1.512l-4.31,4.31
		c-0.595,0.595-1.824,2.291-0.39,5.187c0.559,1.125,1.441,2.308,2.553,3.42c0.97,0.97,3.491,3.224,5.964,3.224
		c1.021,0,1.96-0.377,2.644-1.061l2.043-2.042l2.267-2.268l2.043-2.043l3.314-3.314v8.787c-1.695,1.355-2.101,2.835-2.101,3.938v2
		c0,1.062,0.383,2.559,2.101,3.93v2.343c0.001,0.744,0.198,1.736,0.981,2.738v0.016c0,0.988,0.342,2.3,1.748,3.509v5.011
		c-0.03,7.542-4.463,14.254-11.566,17.504l-0.029,0.013l-0.027,0.014c-11.104,5.365-20.492,13.688-27.153,24.066
		c-6.851,10.675-10.473,23.051-10.472,35.79c0,2.247,0.113,4.521,0.34,6.758L42,353.894c0.047,7.318,6.422,13.963,17.965,18.72
		c10.742,4.427,24.961,6.865,40.035,6.865s29.292-2.438,40.034-6.865c11.543-4.757,17.919-11.401,17.966-18.72l8.16-160.226
		c0.226-2.239,0.34-4.512,0.34-6.758c0-12.755-3.622-25.139-10.476-35.813c-6.666-10.383-16.066-18.703-27.186-24.061l-0.026-0.013
		l-0.027-0.013c-7.088-3.242-11.508-9.952-11.534-17.51v-4.989c1.405-1.209,1.747-2.52,1.747-3.508v-0.014
		c0.785-1.004,0.982-1.997,0.982-2.74v-2.342c1.718-1.372,2.102-2.869,2.102-3.931v-2c0-1.103-0.405-2.581-2.102-3.937V75.777
		c0-7.797-4.534-14.809-11.482-18.071V50.79c0-0.886-0.304-1.702-0.812-2.351v-6.247c0.072-0.088,0.139-0.177,0.199-0.265
		c3.025,2.972,7.442,5.609,11.296,6.703c1.028,0.291,2.367,0.434,4.091,0.434c7.515,0,20.949-2.738,21.517-2.854
		c3.18-0.652,4.435-2.854,4.255-4.623c-0.16-1.577-1.503-3.275-4.074-3.275c-0.427,0-0.883,0.047-1.357,0.14
		c-1.009,0.197-4.758,0.47-9.173,0.47c-3.473,0-6.271-0.168-7.883-0.473c-2.992-0.566-5.265-2.962-8.141-5.995
		c-0.427-0.45-0.86-0.907-1.306-1.367c-0.104-0.114-0.211-0.227-0.322-0.334l-0.042-0.044c-1.232-1.262-2.794-1.931-4.513-1.931
		c-0.044,0-0.088,0-0.132,0.001c-0.069-0.005-0.146-0.008-0.228-0.008c-0.429,0-0.854,0.039-1.271,0.116
		c-0.541-1.257-1.532-2.275-2.77-2.851l-0.39-1.168C107.048,22.646,104.549,21.521,100,21.521L100,21.521z"/>
	<g>
		<g>
			<path d="M99.102,283.307c-3.056,0-6.037-0.428-8.863-1.271c-3.331-1.011-6.426-2.39-9.201-4.101
				c-1.016-0.633-1.862-0.952-2.521-0.952c-1.315,0-2.126,1.53-2.41,4.548c-0.024,0.266-0.154,0.511-0.361,0.68
				c-0.18,0.147-0.404,0.227-0.634,0.227c-0.034,0-0.069-0.002-0.104-0.006l-2.458-0.256c-0.266-0.027-0.508-0.159-0.676-0.367
				c-0.167-0.208-0.244-0.474-0.215-0.738l2.074-18.436c0.058-0.511,0.49-0.889,0.993-0.889c0.034,0,0.067,0.002,0.103,0.005
				l2.509,0.256c0.458,0.047,0.825,0.4,0.889,0.856c0.787,5.603,4.296,10.17,10.429,13.577c2.822,1.564,6.338,2.358,10.447,2.358
				c7.752,0,11.521-2.479,11.521-7.578c0-4.052-2.235-7.179-6.834-9.559l-17.287-7.837c-4.434-2.005-7.837-4.547-10.114-7.554
				c-2.223-2.929-3.359-6.361-3.377-10.2c0-6.69,2.688-11.93,7.986-15.576c5.164-3.549,11.695-5.349,19.411-5.349
				c4.115,0,7.656,0.557,10.522,1.653c2.604,0.993,4.811,1.496,6.556,1.496c1.873,0,2.005-0.765,2.062-1.091
				c0.076-0.438,0.431-0.772,0.872-0.823l2.254-0.256c0.038-0.005,0.076-0.007,0.113-0.007c0.231,0,0.456,0.08,0.637,0.229
				c0.209,0.173,0.339,0.423,0.36,0.693l1.356,17.335c0.042,0.541-0.355,1.018-0.896,1.072l-2.509,0.256
				c-0.034,0.004-0.067,0.006-0.102,0.006c-0.23,0-0.455-0.08-0.635-0.228c-0.206-0.169-0.336-0.414-0.36-0.679
				c-0.223-2.363-1.39-5.127-3.47-8.215c-1.307-1.937-3.414-3.59-6.263-4.914c-2.883-1.34-6.415-2.019-10.499-2.019
				c-7.08,0-10.521,2.311-10.521,7.064c0,2.77,0.802,4.729,2.45,5.991c1.668,1.271,3.927,2.645,6.712,4.079l18.399,8.586
				c8.061,4.286,12.133,9.958,12.15,16.88C129.598,276.226,119.337,283.307,99.102,283.307z"/>
			<path fill="#E2F4FD" d="M100.407,216.146c4.012,0,7.4,0.529,10.165,1.588c2.731,1.041,5.036,1.562,6.913,1.562
				c1.81,0,2.825-0.64,3.047-1.92l2.254-0.257l1.356,17.335l-2.509,0.256c-0.239-2.544-1.451-5.437-3.636-8.68
				c-1.417-2.1-3.641-3.854-6.67-5.262c-3.03-1.408-6.67-2.112-10.921-2.112c-7.681,0-11.521,2.688-11.521,8.064
				c0,3.073,0.947,5.335,2.842,6.785c1.725,1.314,4.012,2.706,6.862,4.174l18.435,8.604c7.699,4.096,11.557,9.422,11.573,15.977
				c0,13.365-9.832,20.048-29.496,20.048c-2.97,0-5.829-0.409-8.577-1.229c-3.261-0.989-6.247-2.32-8.962-3.994
				c-1.178-0.733-2.193-1.101-3.047-1.101c-1.929,0-3.063,1.817-3.405,5.454l-2.458-0.256l2.074-18.436l2.509,0.256
				c0.837,5.957,4.481,10.729,10.934,14.312c2.987,1.656,6.631,2.484,10.933,2.484c8.348,0,12.521-2.859,12.521-8.578
				c0-4.42-2.458-7.902-7.374-10.446l-17.334-7.86c-4.302-1.945-7.545-4.361-9.729-7.246c-2.1-2.766-3.158-5.966-3.175-9.602
				c0-6.366,2.518-11.282,7.553-14.748C86.581,217.869,92.863,216.146,100.407,216.146 M100.407,214.146
				c-7.922,0-14.644,1.858-19.978,5.523c-5.588,3.846-8.42,9.362-8.42,16.396c0.019,4.07,1.224,7.705,3.582,10.811
				c2.377,3.14,5.91,5.784,10.498,7.859l17.284,7.838c4.204,2.188,6.248,5.017,6.248,8.646c0,1.799,0,6.578-10.521,6.578
				c-3.938,0-7.289-0.752-9.963-2.233c-5.925-3.291-9.172-7.492-9.923-12.842c-0.128-0.911-0.862-1.618-1.777-1.711l-2.509-0.256
				c-0.069-0.008-0.138-0.011-0.205-0.011c-1.006,0-1.871,0.756-1.985,1.776l-2.074,18.436c-0.06,0.53,0.095,1.062,0.429,1.478
				c0.334,0.415,0.821,0.68,1.352,0.735l2.458,0.256c0.069,0.007,0.138,0.011,0.207,0.011c0.46,0,0.909-0.159,1.269-0.453
				c0.412-0.339,0.673-0.828,0.723-1.359c0.158-1.68,0.623-3.642,1.414-3.642c0.213,0,0.832,0.078,1.99,0.798
				c2.855,1.762,6.029,3.177,9.438,4.211c2.928,0.874,6.006,1.315,9.158,1.315c10.194,0,18.016-1.803,23.246-5.357
				c5.475-3.721,8.25-9.337,8.25-16.69c-0.019-7.325-4.27-13.293-12.634-17.742c-0.031-0.017-0.062-0.032-0.094-0.047l-18.398-8.587
				c-2.718-1.4-4.915-2.736-6.532-3.969c-1.381-1.058-2.054-2.757-2.054-5.194c0-2.823,1.082-6.064,9.521-6.064
				c3.938,0,7.328,0.647,10.078,1.926c2.681,1.246,4.651,2.783,5.854,4.566c1.985,2.946,3.097,5.554,3.303,7.749
				c0.05,0.53,0.31,1.02,0.722,1.357c0.359,0.296,0.809,0.455,1.27,0.455c0.067,0,0.135-0.004,0.203-0.011l2.509-0.256
				c1.08-0.11,1.876-1.062,1.791-2.146l-1.356-17.335c-0.043-0.54-0.303-1.041-0.722-1.387c-0.359-0.297-0.811-0.457-1.272-0.457
				c-0.075,0-0.15,0.005-0.226,0.013l-2.254,0.257c-0.883,0.101-1.594,0.771-1.745,1.646c-0.011,0.065-0.023,0.094-0.026,0.1
				c0,0,0,0-0.001,0c-0.01,0-0.26,0.162-1.049,0.162c-1.623,0-3.71-0.481-6.201-1.431
				C108.306,214.725,104.646,214.146,100.407,214.146L100.407,214.146z"/>
		</g>
	</g>
</g>
</svg>
