<?xml version="1.0" encoding="utf-8"?>
<!-- Generator: Adobe Illustrator 15.1.0, SVG Export Plug-In . SVG Version: 6.00 Build 0)  -->
<!DOCTYPE svg PUBLIC "-//W3C//DTD SVG 1.1//EN" "http://www.w3.org/Graphics/SVG/1.1/DTD/svg11.dtd">
<svg version="1.1" id="Layer_1" xmlns="http://www.w3.org/2000/svg" xmlns:xlink="http://www.w3.org/1999/xlink" x="0px" y="0px"
	 width="200px" height="400px" viewBox="0 0 200 400" enable-background="new 0 0 200 400" xml:space="preserve">
<g>
	<g>
		<path fill="#58C1EF" d="M164.125,186.17c0-25.207-14.68-46.916-35.963-57.17c-7.835-3.586-13.255-11.256-13.286-20.229V86.74
			H86.374v22.043c-0.037,8.969-5.488,16.65-13.319,20.232c-21.248,10.268-35.931,31.973-35.931,57.154
			c0,2.205,0.113,4.383,0.333,6.529l8.167,160.373c0,12.52,24.625,22.666,55.001,22.666s55-10.146,55-22.666l8.168-160.373
			C164.012,190.553,164.125,188.375,164.125,186.17z"/>
		<path fill="#B5E4FA" d="M36.979,178.705c0-9.213,28.219-16.682,63.021-16.682s63.021,7.469,63.021,16.682
			c-2.667-21.84-16.424-40.211-35.483-49.393c-7.835-3.586-13.255-11.256-13.286-20.229V87.053H85.749v22.043
			c-0.037,8.969-5.488,16.65-13.319,20.232C53.404,138.521,39.649,156.887,36.979,178.705z"/>
		<path fill="#E2F4FD" d="M50.331,186.617c3.242,1.244,6.229-0.836,8.542-0.336c2.821,0.609,4.2,4.227,6.331,4.625
			c2.131,0.4,1.892,3.617-1.205,3.021c-3.098-0.596-4.813,0.354-6.916-0.186c-2.434-0.625-2.522-2.418-6.752-3.15
			C48.034,190.193,46.829,185.283,50.331,186.617"/>
		<path fill="#E2F4FD" d="M72.862,192.176c1.367,0.182,2.323-1.707,4.636-1.832c0.586-0.031,1.663,0.555,2.668,0.438
			s1.645-1.125,3.52-0.562c2.29,0.688,2.219,3.275,5.013,3.396c2.795,0.119,1.828,3.092,0,2.996s-4.366,0.4-6.45,0.275
			c-0.819-0.049-2.036-0.641-2.875-0.73c-1.296-0.139-1.981,0-2.688,0c-1.688,0-1.439-0.609-3.823-0.891
			C71.513,195.105,71.247,191.961,72.862,192.176"/>
		<path fill="#E2F4FD" d="M122.624,192.73c3.003-0.355,4.88-2.715,7.062-3.012c2.75-0.375,3.071,1.055,4.5,0.812
			c2.938-0.5,2.505-1.727,4.625-2.188c1.438-0.312,1.375,0.562,2.938,0.191c0.521-0.125,0-0.426,1.188-1.754
			c0.966-1.08,0.796-1.189,0.375-3.125c-0.312-1.438,1.125-3,2.625-2.875c1.175,0.098,1.319,0.721,2.312-0.062
			c1.188-0.938-0.188-1.312,0.625-2.75c1.016-1.797,1.938-0.75,2.75-1.938c0.806-1.178,1.438-2.375,3-2.438
			c2.318-0.094,0.5-1.25,2.125,0.125s2.125,2.795,2.375,3.771c0.25,0.979,0.637,9.096,0.25,10.729
			c-0.562,2.375-3.484,3.795-5.062,2.125c-0.868-0.92-2.249-0.459-3.062-0.25c-1.566,0.404-2.5,1.688-4.5,2.312
			c-1.293,0.404-3.183-0.061-4.557,0.25s-0.75,0.773-2.443,1.188c-1.146,0.281-2.125-0.5-5.134,0.326
			c-1.484,0.406-1.929,1.299-3.929,1.549c-1.22,0.152-3.907-0.395-5.624-0.207S120.498,192.977,122.624,192.73"/>
		<path fill="#E2F4FD" d="M50.409,170.76l-1.42-3.484c2.625-0.865,4.176-3.037,5.259-3.369c1.083-0.334,1.517-0.041,2.375-0.375
			c1.435-0.557,1.513-2.193,4-2.438c3.812-0.375,2.688,2.25,7.04,1.777v3.037c-1.834,0.285-3.998,2.395-5.748,2.865
			c-1.75,0.473-2.584-0.055-3.916,0s-1.084,0.445-2.084,0.695S53.131,169.85,50.409,170.76"/>
		<path fill="#E2F4FD" d="M110.811,160.775c1.356,0.221,3.396-1.756,5.709-1.744c2.619,0.012,4.064,2.377,6.649,2.662
			s1.005,3.086-1.107,2.887s-4.188,0.617-6.126,0.473c-1.938-0.146-3.456-1.217-5.291-1.293
			C108.81,163.686,109.623,160.582,110.811,160.775z"/>
		<path fill="#E2F4FD" d="M85.751,160.961c2.246-0.127,3.582-2.555,6.185-2.555c2.604,0,2.295,0.959,3.482,1
			c1.188,0.039,2.019-2.016,5.018-1.875c2.688,0.125,2.493,2.9,4.312,2.992c1.819,0.094,1.498,3.072,0,3.047
			s-2.498,1.016-4.75,1.023c-2.252,0.006-3.188-1.318-4.125-1.035c-0.938,0.285-2.375,1.512-4.375,1.465
			c-1.581-0.035-3.698-1.59-5.747-1.264C83.702,164.088,85.751,160.961,85.751,160.961z"/>
		<ellipse fill="none" stroke="#E2F4FD" stroke-width="3" stroke-miterlimit="10" cx="100" cy="178.705" rx="63.013" ry="16.682"/>
		<g>
			<path fill="#E2F4FD" d="M100,196.887c-31.274,0-64.514-6.373-64.514-18.182S68.726,160.523,100,160.523
				s64.513,6.373,64.513,18.182S131.274,196.887,100,196.887z M100,163.523c-36.251,0-58.514,8.002-58.514,15.182
				c0,7.182,22.263,15.182,58.514,15.182c36.25,0,58.513-8,58.513-15.182C158.513,171.525,136.25,163.523,100,163.523z"/>
		</g>
		<circle fill="#B5E4FA" cx="136.332" cy="223.719" r="7.834"/>
		<circle fill="#B5E4FA" cx="146.832" cy="207.051" r="6.416"/>
		<circle fill="#B5E4FA" cx="132.332" cy="243.717" r="6.416"/>
		<circle fill="#B5E4FA" cx="132.332" cy="208.676" r="4.791"/>
		<circle fill="#B5E4FA" cx="139.207" cy="198.053" r="2.541"/>
		<circle fill="#B5E4FA" cx="83.082" cy="329.469" r="7.834"/>
		<circle fill="#B5E4FA" cx="89.249" cy="351.219" r="8.75"/>
		<circle fill="#B5E4FA" cx="65.123" cy="349.469" r="8.875"/>
		<circle fill="#B5E4FA" cx="83.082" cy="303.969" r="3.125"/>
		<circle fill="#B5E4FA" cx="100" cy="311.01" r="3.917"/>
		<circle fill="#B5E4FA" cx="70.081" cy="321.635" r="3.917"/>
		<circle fill="#B5E4FA" cx="82.707" cy="193.615" r="2.541"/>
		<circle fill="#B5E4FA" cx="139.208" cy="190.906" r="1.75"/>
		<circle fill="#B5E4FA" cx="130.187" cy="192.656" r="2.146"/>
		<circle fill="#B5E4FA" cx="100" cy="161.219" r="2.541"/>
		<circle fill="#B5E4FA" cx="91.998" cy="161.873" r="2.167"/>
		<circle fill="#B5E4FA" cx="116.52" cy="162.023" r="2.312"/>
		<circle fill="#B5E4FA" cx="60.999" cy="165.023" r="3"/>
		<circle fill="#B5E4FA" cx="55.208" cy="166.898" r="1.875"/>
		<circle fill="#B5E4FA" cx="77.456" cy="192.99" r="1.665"/>
		<circle fill="#B5E4FA" cx="58.166" cy="190.156" r="2.833"/>
		<path fill="#1B87C9" d="M111.251,90.053v19.041c0.035,9.916,5.785,18.699,15.01,22.934c10.106,4.875,18.652,12.441,24.715,21.883
			c6.23,9.707,9.524,20.969,9.524,32.572c0,2.07-0.106,4.164-0.316,6.227l-0.008,0.074l-0.004,0.076l-8.168,160.373L152,353.309
			v0.076c0,9.303-21.355,19.666-52,19.666s-52.001-10.363-52.001-19.666v-0.076l-0.004-0.076l-8.167-160.373l-0.004-0.076
			l-0.008-0.076c-0.21-2.059-0.317-4.154-0.317-6.225c0-11.588,3.293-22.844,9.521-32.549c6.059-9.438,14.594-17.008,24.687-21.891
			c9.099-4.176,15.001-13.176,15.042-22.947V90.053H111.251 M114.251,87.053H85.749v22.043c-0.037,8.969-5.488,16.65-13.319,20.232
			c-21.248,10.268-35.931,31.973-35.931,57.154c0,2.205,0.113,4.383,0.333,6.529l8.167,160.373c0,12.52,24.625,22.666,55.001,22.666
			s55-10.146,55-22.666l8.168-160.373c0.219-2.146,0.332-4.324,0.332-6.529c0-25.207-14.68-46.916-35.963-57.17
			c-7.835-3.586-13.255-11.256-13.286-20.229V87.053L114.251,87.053z"/>
		<rect x="104.686" y="31.969" fill="#546E7A" stroke="#455B65" stroke-miterlimit="10" width="7.062" height="5.045"/>
		
			<rect x="64.548" y="73.862" transform="matrix(0.7071 0.7072 -0.7072 0.7071 74.6491 -26.3795)" fill="#546E7A" stroke="#455B65" stroke-miterlimit="10" width="9.233" height="6.095"/>
		<path fill="#90A4AE" stroke="#455B65" stroke-miterlimit="10" d="M68.176,77.898c-1.804-1.803-2.771-3.758-2.164-4.365
			l-4.31,4.311c-0.607,0.607,0.36,2.561,2.164,4.365c1.803,1.803,3.756,2.77,4.363,2.162l4.311-4.309
			C71.933,80.67,69.979,79.701,68.176,77.898z"/>
		<path fill="#90A4AE" stroke="#455B65" stroke-miterlimit="10" d="M94.623,52.461c-5.026,0-9.561,2.049-12.849,5.346l-0.018-0.018
			L67.522,72.023c-0.606,0.607,0.361,2.561,2.165,4.363c1.803,1.803,3.757,2.771,4.364,2.164l14.232-14.234l-0.099-0.098h6.438
			V52.461z"/>
		<path fill="#546E7A" stroke="#455B65" stroke-miterlimit="10" d="M84.001,97.967v2.609c0,2.34,7.162,4.236,15.998,4.236
			c8.835,0,15.999-1.896,15.999-4.236v-2.609H84.001z"/>
		<path fill="#90A4AE" stroke="#455B65" stroke-miterlimit="10" d="M104.686,49.551c0,0.684-2.098,1.24-4.686,1.24
			s-4.686-0.557-4.686-1.24c-0.449,0-0.812,0.363-0.812,0.812v10.043h10.996V50.363C105.498,49.914,105.135,49.551,104.686,49.551z"
			/>
		<path fill="#90A4AE" stroke="#455B65" stroke-miterlimit="10" d="M104.498,25.094c0-0.551-2.014-1-4.498-1s-4.498,0.449-4.498,1
			l-1,3c0,0.805,2.461,1.457,5.498,1.457s5.498-0.652,5.498-1.457L104.498,25.094z"/>
		<path fill="#90A4AE" stroke="#455B65" stroke-miterlimit="10" d="M100,58.369c-9.379,0-16.981,7.602-16.981,16.98v22.473l0,0
			c0,2.484,7.603,4.496,16.981,4.496c9.378,0,16.98-2.012,16.98-4.496V75.35C116.98,65.971,109.378,58.369,100,58.369z"/>
		<path fill="#D0D8DC" stroke="#455B65" stroke-miterlimit="10" d="M83.02,89.551l-0.001-2.307
			c-1.343,0.691-2.101,1.475-2.101,2.307c0,2.789,8.543,5.051,19.082,5.051s19.082-2.262,19.082-5.051
			c0-0.832-0.759-1.615-2.102-2.307v2.307c0,2.482-7.603,4.494-16.98,4.494C90.621,94.045,83.02,92.033,83.02,89.551z"/>
		<path fill="#90A4AE" stroke="#455B65" stroke-miterlimit="10" d="M116.98,95.094c0-0.736,0.354-1.42,0.927-1.795
			c-2.688,1.928-9.69,3.303-17.907,3.303c-8.213,0-15.216-1.375-17.906-3.301c0.572,0.375,0.926,1.057,0.926,1.793l-0.001,2.729
			h0.001c0,2.484,7.602,4.496,16.98,4.496c9.378,0,16.98-2.012,16.98-4.496V95.094z"/>
		<path fill="#90A4AE" stroke="#455B65" stroke-miterlimit="10" d="M119.082,91.551v-2c0,2.789-8.543,5.051-19.082,5.051
			s-19.082-2.262-19.082-5.051v2c0,2.789,8.543,5.051,19.082,5.051S119.082,94.34,119.082,91.551z"/>
		<path fill="#546E7A" stroke="#455B65" stroke-miterlimit="10" d="M95.314,39.844v9.707c0,0.684,2.098,1.24,4.686,1.24
			s4.686-0.557,4.686-1.24v-9.707H95.314z"/>
		<path fill="#90A4AE" stroke="#455B65" stroke-miterlimit="10" d="M94.502,39.551c0-4.299-0.916-6.832-2.168-7.562
			c-0.242-0.391-0.384-0.85-0.384-1.344c0-1.408,1.143-2.551,2.552-2.551c0,0.805,2.461,1.457,5.498,1.457s5.498-0.652,5.498-1.457
			c1.409,0,2.552,1.143,2.552,2.551c0,0.494-0.142,0.953-0.384,1.344c-1.252,0.73-2.168,3.264-2.168,7.562
			c0,0.803-2.461,1.455-5.498,1.455S94.502,40.354,94.502,39.551z"/>
		<path fill="#90A4AE" stroke="#455B65" stroke-miterlimit="10" d="M144.186,40.969c-2.562,0.5-13.562,0.875-18.188,0
			c-4.494-0.85-7.408-4.465-11.077-8.258c-0.078-0.086-0.157-0.172-0.242-0.252c-0.026-0.025-0.051-0.053-0.077-0.078
			c-0.773-0.793-1.687-1.082-2.591-1.023c-0.047-0.002-0.091-0.014-0.138-0.014c-2.071,0-3.77,1.531-4.064,3.52
			c-0.195,0.734-0.159,1.486,0.241,2.15c0.002,0.004,0.005,0.006,0.007,0.01c0.28,0.688,0.745,1.271,1.326,1.715
			c2.433,2.633,6.738,5.479,10.617,6.578c4.752,1.35,21.748-1.973,24.186-2.473S146.748,40.469,144.186,40.969z"/>
		
			<line fill="none" stroke="#D0D8DC" stroke-width="2" stroke-linecap="round" stroke-miterlimit="10" x1="70.276" y1="73.713" x2="82.384" y2="61.605"/>
		
			<line fill="none" stroke="#D0D8DC" stroke-width="2" stroke-linecap="round" stroke-miterlimit="10" x1="64.437" y1="79.553" x2="65.854" y2="78.137"/>
		<path fill="none" stroke="#D0D8DC" stroke-width="2" stroke-linecap="round" stroke-miterlimit="10" d="M88.636,70.572
			c1.403-3.32,4.221-5.898,7.696-6.98"/>
		<path fill="none" stroke="#D0D8DC" stroke-width="2" stroke-linecap="round" stroke-miterlimit="10" d="M102.002,31.906
			c-0.621,0.064-1.296,0.1-2.002,0.1c-1.996,0-3.743-0.281-4.707-0.703"/>
		<path fill="none" stroke="#D0D8DC" stroke-width="2" stroke-linecap="round" stroke-miterlimit="10" d="M110.285,35.551
			c0-1.027,0.832-1.859,1.857-1.859"/>
		<path d="M100,24.094c2.484,0,4.498,0.449,4.498,1l1,3c1.409,0,2.552,1.143,2.552,2.551c0,0.486-0.14,0.938-0.375,1.324h2.031
			c0.629-0.395,1.368-0.625,2.167-0.625c0.047,0,0.091,0.012,0.138,0.014c0.074-0.006,0.148-0.008,0.222-0.008
			c0.831,0,1.659,0.303,2.369,1.031c0.026,0.025,0.051,0.053,0.077,0.078c0.085,0.08,0.164,0.166,0.242,0.252
			c3.669,3.793,6.583,7.408,11.077,8.258c2.013,0.381,5.233,0.525,8.44,0.525c4.161,0,8.3-0.244,9.747-0.525
			c0.297-0.059,0.558-0.084,0.783-0.084c1.72,0,1.372,1.518-0.783,1.959c-2.031,0.416-14.173,2.793-20.914,2.793
			c-1.348,0-2.479-0.096-3.271-0.32c-3.879-1.1-8.185-3.945-10.617-6.578c-0.581-0.443-1.046-1.027-1.326-1.715
			c-0.002-0.004-0.005-0.006-0.007-0.01h-2.421c-0.08,0.768-0.131,1.602-0.131,2.537c0,0.277-0.301,0.537-0.812,0.758v9.242
			c0.449,0,0.812,0.363,0.812,0.812v8.934c6.676,2.287,11.482,8.602,11.482,16.053v11.895c1.343,0.691,2.102,1.475,2.102,2.307v2
			c0,0.666-0.5,1.301-1.387,1.885c0.053-0.035,0.11-0.07,0.164-0.104c-0.544,0.381-0.879,1.045-0.879,1.762v2.729
			c0,0.525-0.357,1.027-0.982,1.496v1.258c0,0.691-0.639,1.342-1.747,1.918v6.59c0.031,8.973,5.451,16.643,13.286,20.229
			c21.283,10.254,35.963,31.963,35.963,57.17c0,2.205-0.113,4.383-0.332,6.529L155,353.385c0,12.52-24.624,22.666-55,22.666
			s-55.001-10.146-55.001-22.666l-8.167-160.373c-0.22-2.146-0.333-4.324-0.333-6.529c0-25.182,14.683-46.887,35.931-57.154
			c7.831-3.582,13.282-11.264,13.319-20.232v-6.6c-1.109-0.578-1.748-1.229-1.748-1.92v-1.258c-0.625-0.469-0.982-0.971-0.982-1.496
			l0,0v-2.736c-0.003-0.711-0.334-1.371-0.873-1.75c0.053,0.033,0.109,0.066,0.161,0.1c-0.888-0.582-1.389-1.219-1.389-1.885v-2
			c0-0.832,0.758-1.615,2.101-2.307V75.35c0-2.719,0.655-5.279,1.791-7.559L74.583,78.02l-2.043,2.043l-2.268,2.266l-2.043,2.043
			c-0.123,0.123-0.301,0.182-0.521,0.182c-0.87,0-2.404-0.906-3.842-2.344c-1.804-1.805-2.771-3.758-2.164-4.365l4.31-4.311v0.002
			l1.511-1.512l14.234-14.234l0.018,0.018c3.262-3.27,7.75-5.307,12.728-5.34v-2.104c0-0.449,0.363-0.812,0.812-0.812v-9.242
			c-0.512-0.221-0.812-0.48-0.812-0.758c0-4.299-0.916-6.832-2.168-7.562c-0.242-0.391-0.384-0.85-0.384-1.344
			c0-1.408,1.143-2.551,2.552-2.551l1-3C95.502,24.543,97.516,24.094,100,24.094 M116.98,93.85c0.176-0.092,0.345-0.184,0.5-0.277
			c-0.154,0.094-0.325,0.186-0.5,0.275V93.85 M82.54,93.586c0.149,0.088,0.311,0.176,0.479,0.262l0,0
			C82.853,93.76,82.688,93.674,82.54,93.586c-0.007-0.006-0.014-0.01-0.02-0.014C82.526,93.576,82.533,93.58,82.54,93.586
			 M117.907,93.299c-0.016,0.012-0.031,0.021-0.048,0.033C117.875,93.32,117.892,93.311,117.907,93.299 M82.094,93.301
			c0.018,0.01,0.034,0.021,0.052,0.035C82.128,93.324,82.11,93.312,82.094,93.301 M100,21.094c-4.549,0-7.048,1.125-7.442,3.348
			l-0.39,1.168c-1.898,0.883-3.218,2.809-3.218,5.035c0,1.035,0.289,2.045,0.835,2.926l0.393,0.633l0.503,0.293
			c0.264,0.391,0.821,1.873,0.821,5.055c0,0.459,0.106,1.359,0.812,2.215v6.246c-0.376,0.48-0.64,1.051-0.753,1.674
			c-3.508,0.508-6.809,1.885-9.642,4.023l-0.146-0.145l-2.139,2.104L65.401,69.902l-1.512,1.512l-4.309,4.309
			c-0.596,0.596-1.824,2.291-0.389,5.188c0.557,1.125,1.439,2.307,2.553,3.42c0.969,0.969,3.49,3.223,5.963,3.223
			c1.021,0,1.96-0.377,2.644-1.061l2.042-2.041l2.268-2.268l2.043-2.043l3.314-3.314v8.787c-1.695,1.355-2.101,2.834-2.101,3.938v2
			c0,1.061,0.384,2.559,2.101,3.93v2.342c0,0.744,0.197,1.736,0.982,2.738v0.016c0,0.988,0.342,2.301,1.748,3.51v5.01
			c-0.031,7.543-4.463,14.254-11.567,17.504l-0.028,0.014l-0.029,0.014c-11.102,5.365-20.491,13.688-27.152,24.066
			c-6.852,10.674-10.473,23.051-10.473,35.789c0,2.248,0.115,4.521,0.341,6.758L42,353.467c0.046,7.318,6.423,13.963,17.966,18.719
			c10.742,4.428,24.959,6.865,40.034,6.865c15.074,0,29.292-2.438,40.034-6.865c11.543-4.756,17.919-11.4,17.966-18.719
			l8.16-160.227c0.226-2.238,0.34-4.512,0.34-6.758c0-12.754-3.622-25.139-10.476-35.812c-6.666-10.383-16.066-18.703-27.186-24.061
			l-0.026-0.014l-0.027-0.012c-7.089-3.242-11.508-9.953-11.534-17.51v-4.99c1.406-1.209,1.747-2.52,1.747-3.508v-0.014
			c0.786-1.004,0.982-1.996,0.982-2.74V95.48c1.718-1.371,2.102-2.869,2.102-3.93v-2c0-1.104-0.405-2.582-2.102-3.938V75.35
			c0-7.797-4.534-14.809-11.482-18.07v-6.916c0-0.887-0.304-1.703-0.812-2.352v-6.246c0.073-0.088,0.139-0.178,0.199-0.266
			c3.025,2.973,7.442,5.609,11.296,6.703c1.029,0.291,2.367,0.434,4.091,0.434c7.515,0,20.948-2.738,21.517-2.854
			c3.18-0.652,4.434-2.854,4.255-4.623c-0.16-1.578-1.503-3.275-4.074-3.275c-0.427,0-0.884,0.047-1.358,0.139
			c-1.008,0.197-4.756,0.471-9.172,0.471c-3.473,0-6.271-0.168-7.883-0.473c-2.992-0.566-5.264-2.963-8.141-5.996
			c-0.428-0.449-0.861-0.906-1.305-1.367c-0.105-0.113-0.212-0.227-0.323-0.334l-0.042-0.043c-1.232-1.262-2.794-1.932-4.513-1.932
			c-0.044,0-0.088,0-0.132,0.002c-0.069-0.006-0.146-0.008-0.228-0.008c-0.429,0-0.854,0.039-1.272,0.115
			c-0.54-1.256-1.531-2.275-2.769-2.85l-0.39-1.168C107.048,22.219,104.549,21.094,100,21.094L100,21.094z"/>
	</g>
	<circle fill="#B5E4FA" cx="144.207" cy="236.053" r="3.666"/>
	<circle fill="#B5E4FA" cx="145.332" cy="189.158" r="2.541"/>
	<circle fill="#B5E4FA" cx="151.456" cy="184.951" r="3.583"/>
	<circle fill="#B5E4FA" cx="155.704" cy="180.643" r="1.938"/>
	<circle fill="#B5E4FA" cx="156.187" cy="188.281" r="1.665"/>
	<circle fill="#B5E4FA" cx="145.872" cy="183.309" r="1.665"/>
	<circle fill="#B5E4FA" cx="154.521" cy="176.32" r="1.665"/>
	<circle fill="#B5E4FA" cx="151.107" cy="179.24" r="1.75"/>
</g>
</svg>
