<?xml version="1.0" encoding="utf-8"?>
<!-- Generator: Adobe Illustrator 15.1.0, SVG Export Plug-In . SVG Version: 6.00 Build 0)  -->
<!DOCTYPE svg PUBLIC "-//W3C//DTD SVG 1.1//EN" "http://www.w3.org/Graphics/SVG/1.1/DTD/svg11.dtd">
<svg version="1.1" id="Layer_1" xmlns="http://www.w3.org/2000/svg" xmlns:xlink="http://www.w3.org/1999/xlink" x="0px" y="0px"
	 width="100px" height="100px" viewBox="0 0 100 100" enable-background="new 0 0 100 100" xml:space="preserve">
<g>
	<g>
		<path fill="#1B87C9" d="M49.299,17.276c4.012,0,7.4,0.529,10.165,1.588c2.731,1.041,5.036,1.562,6.913,1.562
			c1.81,0,2.825-0.64,3.047-1.921l2.254-0.256l1.356,17.334l-2.509,0.256c-0.182-1.931-0.927-4.064-2.23-6.399
			c1.166-0.536,1.98-1.707,1.98-3.075c0-1.871-1.519-3.389-3.39-3.389c-1.096,0-2.06,0.528-2.679,1.334
			c-1.122-0.893-2.45-1.697-3.987-2.412c-3.03-1.408-6.67-2.111-10.921-2.111c-7.681,0-11.521,2.688-11.521,8.064
			c0,3.072,0.947,5.334,2.842,6.785c1.725,1.314,4.012,2.705,6.862,4.174l18.435,8.604c7.699,4.095,11.557,9.421,11.573,15.976
			c0,4.287-1.017,7.881-3.039,10.793c-0.611-0.883-1.629-1.463-2.785-1.463c-1.871,0-3.39,1.518-3.39,3.389
			c0,1.084,0.518,2.037,1.308,2.658c-4.91,3.111-12.102,4.672-21.59,4.672c-2.97,0-5.829-0.41-8.577-1.23
			c-3.261-0.988-6.247-2.32-8.962-3.994c-1.178-0.732-2.193-1.1-3.047-1.1c-1.929,0-3.063,1.816-3.405,5.453l-2.458-0.256
			l2.074-18.436l2.509,0.256c0.837,5.957,4.481,10.729,10.934,14.312c2.987,1.656,6.631,2.484,10.933,2.484
			c5.794,0,9.572-1.381,11.344-4.135c0.672,0.256,1.397,0.4,2.158,0.4c3.359,0,6.084-2.723,6.084-6.082s-2.725-6.084-6.084-6.084
			c-1.173,0-2.264,0.338-3.193,0.914c-0.982-1.24-2.295-2.355-3.935-3.346c0.798-1.184,1.265-2.611,1.265-4.146
			c0-4.105-3.328-7.434-7.433-7.434c-3.401,0-6.263,2.289-7.146,5.408l-3.581-1.625c0.007-0.111,0.017-0.221,0.017-0.334
			c0-3.359-2.724-6.083-6.083-6.083c-1.132,0-2.188,0.314-3.096,0.854c-0.834-0.772-1.587-1.582-2.234-2.438
			c-2.1-2.766-3.158-5.966-3.175-9.602c0-6.367,2.518-11.283,7.553-14.748C35.473,19,41.755,17.276,49.299,17.276 M27.636,34.506
			c1.276,0,2.312-1.035,2.312-2.312s-1.036-2.312-2.312-2.312c-1.277,0-2.312,1.035-2.312,2.312S26.358,34.506,27.636,34.506
			 M35.911,46.042c2.489,0,4.507-2.018,4.507-4.506S38.4,37.03,35.911,37.03c-2.488,0-4.506,2.018-4.506,4.506
			S33.423,46.042,35.911,46.042 M43.079,49.474c1.277,0,2.312-1.035,2.312-2.312s-1.035-2.312-2.312-2.312s-2.312,1.035-2.312,2.312
			S41.802,49.474,43.079,49.474 M57.944,51.461c1.277,0,2.312-1.036,2.312-2.313s-1.035-2.312-2.312-2.312
			c-1.276,0-2.312,1.035-2.312,2.312S56.668,51.461,57.944,51.461 M64.886,62.754c1.871,0,3.39-1.518,3.39-3.391
			c0-1.871-1.519-3.389-3.39-3.389c-1.873,0-3.391,1.518-3.391,3.389C61.495,61.236,63.013,62.754,64.886,62.754 M49.299,16.276
			c-7.716,0-14.247,1.799-19.411,5.348c-5.3,3.647-7.986,8.886-7.986,15.572c0.018,3.844,1.154,7.276,3.378,10.206
			c0.653,0.862,1.444,1.727,2.352,2.566l0.548,0.508l0.643-0.382c0.785-0.466,1.679-0.713,2.585-0.713
			c2.803,0,5.083,2.281,5.083,5.083c0,0.064-0.005,0.127-0.009,0.189l-0.006,0.084l-0.042,0.688l0.627,0.285l3.581,1.623l1.059,0.48
			l0.316-1.119c0.78-2.756,3.323-4.68,6.184-4.68c3.547,0,6.433,2.885,6.433,6.434c0,1.285-0.378,2.525-1.094,3.588L52.95,62.91
			l0.9,0.543c1.53,0.922,2.765,1.969,3.667,3.109l0.553,0.697l0.758-0.469c0.807-0.5,1.729-0.764,2.667-0.764
			c2.804,0,5.084,2.281,5.084,5.084s-2.28,5.082-5.084,5.082c-0.61,0-1.217-0.113-1.803-0.336l-0.758-0.289l-0.438,0.684
			c-1.569,2.439-5.103,3.676-10.503,3.676c-4.109,0-7.624-0.793-10.447-2.359c-6.133-3.406-9.642-7.973-10.429-13.576l-0.109-0.775
			l-0.779-0.08l-2.509-0.256l-0.984-0.102l-0.111,0.984L20.55,82.199l-0.112,1.002l1.003,0.104l2.458,0.256l1.005,0.105l0.094-1.006
			c0.284-3.018,1.095-4.547,2.41-4.547c0.659,0,1.507,0.318,2.519,0.949c2.778,1.713,5.873,3.092,9.2,4.102
			c2.83,0.846,5.812,1.273,8.867,1.273c9.626,0,17.07-1.625,22.125-4.828l1.194-0.756l-1.111-0.875
			c-0.589-0.463-0.926-1.145-0.926-1.871c0-1.316,1.072-2.389,2.39-2.389c0.781,0,1.516,0.387,1.963,1.031l0.821,1.186l0.822-1.184
			c2.135-3.074,3.218-6.896,3.218-11.363c-0.018-6.924-4.09-12.596-12.104-16.859l-0.023-0.013l-0.023-0.011l-18.435-8.604
			c-2.752-1.419-5.011-2.792-6.679-4.063c-1.646-1.261-2.448-3.221-2.448-5.99c0-4.754,3.441-7.064,10.521-7.064
			c4.085,0,7.618,0.679,10.499,2.018c1.454,0.676,2.729,1.446,3.787,2.288l0.795,0.633L65,24.918c0.461-0.6,1.148-0.943,1.886-0.943
			c1.317,0,2.39,1.072,2.39,2.389c0,0.926-0.549,1.776-1.398,2.167l-0.982,0.452l0.527,0.944c1.231,2.206,1.94,4.226,2.108,6.006
			l0.094,1.003l1.003-0.103l2.509-0.256l0.972-0.099l-0.076-0.974L72.675,18.17l-0.081-1.032l-1.028,0.117l-2.254,0.256
			l-0.745,0.084l-0.128,0.739c-0.057,0.327-0.188,1.091-2.062,1.091c-1.746,0-3.952-0.503-6.557-1.496
			C56.955,16.833,53.415,16.276,49.299,16.276L49.299,16.276z M27.636,33.506c-0.724,0-1.312-0.589-1.312-1.312
			s0.589-1.312,1.312-1.312s1.312,0.589,1.312,1.312S28.359,33.506,27.636,33.506L27.636,33.506z M35.911,45.042
			c-1.934,0-3.506-1.572-3.506-3.506s1.572-3.506,3.506-3.506s3.507,1.572,3.507,3.506S37.845,45.042,35.911,45.042L35.911,45.042z
			 M43.079,48.474c-0.724,0-1.312-0.589-1.312-1.312s0.589-1.312,1.312-1.312s1.312,0.589,1.312,1.312S43.803,48.474,43.079,48.474
			L43.079,48.474z M57.944,50.46c-0.724,0-1.312-0.589-1.312-1.312s0.589-1.312,1.312-1.312s1.312,0.589,1.312,1.312
			S58.668,50.46,57.944,50.46L57.944,50.46z M64.886,61.754c-1.318,0-2.391-1.072-2.391-2.391c0-1.316,1.072-2.389,2.391-2.389
			c1.317,0,2.39,1.072,2.39,2.389C67.275,60.682,66.203,61.754,64.886,61.754L64.886,61.754z"/>
	</g>
	<g>
		<path d="M49.299,17.276c4.012,0,7.4,0.529,10.165,1.588c2.731,1.041,5.036,1.562,6.913,1.562c1.81,0,2.825-0.64,3.047-1.921
			l2.254-0.256l1.356,17.334l-2.509,0.256c-0.239-2.543-1.451-5.436-3.636-8.68c-1.417-2.1-3.641-3.854-6.67-5.262
			c-3.03-1.408-6.67-2.111-10.921-2.111c-7.681,0-11.521,2.688-11.521,8.064c0,3.072,0.947,5.334,2.842,6.785
			c1.725,1.314,4.012,2.705,6.862,4.174l18.435,8.604c7.699,4.095,11.557,9.421,11.573,15.976c0,13.365-9.832,20.049-29.496,20.049
			c-2.97,0-5.829-0.41-8.577-1.23c-3.261-0.988-6.247-2.32-8.962-3.994c-1.178-0.732-2.193-1.1-3.047-1.1
			c-1.929,0-3.063,1.816-3.405,5.453l-2.458-0.256l2.074-18.436l2.509,0.256c0.837,5.957,4.481,10.729,10.934,14.312
			c2.987,1.656,6.631,2.484,10.933,2.484c8.348,0,12.521-2.859,12.521-8.578c0-4.42-2.458-7.902-7.374-10.445l-17.334-7.861
			c-4.302-1.945-7.545-4.361-9.729-7.246c-2.1-2.766-3.158-5.966-3.175-9.602c0-6.367,2.518-11.283,7.553-14.748
			C35.473,19,41.755,17.276,49.299,17.276 M49.299,14.276c-8.128,0-15.04,1.917-20.544,5.699c-5.875,4.043-8.854,9.837-8.854,17.221
			c0.02,4.297,1.293,8.133,3.785,11.416c2.479,3.273,6.141,6.021,10.883,8.166l17.258,7.826c5.096,2.66,5.687,5.693,5.687,7.746
			c0,1.67,0,5.578-9.521,5.578c-3.766,0-6.955-0.709-9.478-2.107c-5.632-3.129-8.713-7.088-9.418-12.105
			c-0.192-1.369-1.293-2.428-2.666-2.568l-2.509-0.256c-0.104-0.01-0.206-0.016-0.309-0.016c-1.508,0-2.805,1.135-2.978,2.666
			l-2.074,18.436c-0.089,0.795,0.143,1.592,0.644,2.215c0.502,0.623,1.231,1.021,2.027,1.104l2.458,0.256
			c0.104,0.012,0.207,0.016,0.311,0.016c0.69,0,1.363-0.238,1.902-0.68c0.619-0.508,1.01-1.242,1.085-2.039
			c0.153-1.641,0.453-2.395,0.615-2.697c0.22,0.061,0.628,0.213,1.264,0.609c2.934,1.809,6.186,3.26,9.677,4.318
			c3.024,0.902,6.199,1.359,9.448,1.359c26.858,0,32.496-12.533,32.496-23.049c-0.02-7.725-4.448-13.988-13.164-18.625
			c-0.046-0.024-0.093-0.048-0.141-0.07l-18.381-8.578c-2.659-1.373-4.801-2.673-6.366-3.866c-0.406-0.312-1.66-1.272-1.66-4.399
			c0-1.644,0-5.064,8.521-5.064c3.792,0,7.041,0.616,9.656,1.832c2.514,1.168,4.347,2.588,5.448,4.219
			c1.889,2.806,2.944,5.257,3.135,7.283c0.075,0.796,0.465,1.529,1.083,2.037c0.539,0.442,1.213,0.682,1.904,0.682
			c0.102,0,0.203-0.005,0.305-0.016l2.509-0.256c1.621-0.165,2.813-1.594,2.687-3.218l-1.356-17.334
			c-0.063-0.812-0.454-1.562-1.082-2.08c-0.54-0.446-1.216-0.686-1.909-0.686c-0.112,0-0.226,0.006-0.339,0.019l-2.254,0.256
			c-1.123,0.127-2.061,0.871-2.458,1.894c-0.07,0.005-0.153,0.008-0.25,0.008c-1.502,0-3.469-0.459-5.845-1.365
			C57.441,14.877,53.66,14.276,49.299,14.276L49.299,14.276z"/>
	</g>
</g>
</svg>
